<?xml version="1.0" encoding="us-ascii" standalone="no"?><svg xmlns="http://www.w3.org/2000/svg" xmlns:xlink="http://www.w3.org/1999/xlink" contentStyleType="text/css" height="301px" preserveAspectRatio="none" style="width:607px;height:301px;background:#FFFFFF;" version="1.1" viewBox="0 0 607 301" width="607px" zoomAndPan="magnify"><defs/><g><!--class formatter--><g id="elem_formatter"><rect codeLine="5" fill="#F1F1F1" height="26.4883" id="formatter" rx="2.5" ry="2.5" style="stroke:#181818;stroke-width:0.5;" width="83" x="243" y="96.49"/><text fill="#000000" font-family="sans-serif" font-size="14" font-style="italic" lengthAdjust="spacing" textLength="65" x="246" y="115.0252">formatter</text><rect fill="#FFFFFF" height="16.1328" style="stroke:#181818;stroke-width:1.0;stroke-dasharray:2.0,2.0;" width="10" x="319" y="93.49"/><text fill="#000000" font-family="sans-serif" font-size="12" font-style="italic" lengthAdjust="spacing" textLength="8" x="320" y="106.0916">T</text></g><!--class triple--><g id="elem_triple"><rect codeLine="7" fill="#F1F1F1" height="26.4883" id="triple" rx="2.5" ry="2.5" style="stroke:#181818;stroke-width:0.5;" width="161" x="302" y="182.97"/><text fill="#000000" font-family="sans-serif" font-size="14" lengthAdjust="spacing" textLength="121" x="305" y="201.5052">ntriple-statement</text><rect fill="#FFFFFF" height="16.1328" style="stroke:#181818;stroke-width:1.0;stroke-dasharray:2.0,2.0;" width="32" x="434" y="179.97"/><text fill="#000000" font-family="sans-serif" font-size="12" font-style="italic" lengthAdjust="spacing" textLength="30" x="435" y="192.5716">triple</text></g><!--class resource--><g id="elem_resource"><rect codeLine="10" fill="#F1F1F1" height="26.4883" id="resource" rx="2.5" ry="2.5" style="stroke:#181818;stroke-width:0.5;" width="173" x="7" y="269.46"/><text fill="#000000" font-family="sans-serif" font-size="14" lengthAdjust="spacing" textLength="113" x="10" y="287.9952">ntriple-resource</text><rect fill="#FFFFFF" height="16.1328" style="stroke:#181818;stroke-width:1.0;stroke-dasharray:2.0,2.0;" width="52" x="131" y="266.46"/><text fill="#000000" font-family="sans-serif" font-size="12" font-style="italic" lengthAdjust="spacing" textLength="50" x="132" y="279.0616">resource</text></g><!--class bnode--><g id="elem_bnode"><rect codeLine="12" fill="#F1F1F1" height="26.4883" id="bnode" rx="2.5" ry="2.5" style="stroke:#181818;stroke-width:0.5;" width="212" x="384.5" y="269.46"/><text fill="#000000" font-family="sans-serif" font-size="14" lengthAdjust="spacing" textLength="134" x="387.5" y="287.9952">ntriple-blank-node</text><rect fill="#FFFFFF" height="16.1328" style="stroke:#181818;stroke-width:1.0;stroke-dasharray:2.0,2.0;" width="70" x="529.5" y="266.46"/><text fill="#000000" font-family="sans-serif" font-size="12" font-style="italic" lengthAdjust="spacing" textLength="68" x="530.5" y="279.0616">blank-node</text></g><!--class literal--><g id="elem_literal"><rect codeLine="14" fill="#F1F1F1" height="26.4883" id="literal" rx="2.5" ry="2.5" style="stroke:#181818;stroke-width:0.5;" width="134" x="215.5" y="269.46"/><text fill="#000000" font-family="sans-serif" font-size="14" lengthAdjust="spacing" textLength="92" x="218.5" y="287.9952">ntriple-literal</text><rect fill="#FFFFFF" height="16.1328" style="stroke:#181818;stroke-width:1.0;stroke-dasharray:2.0,2.0;" width="34" x="318.5" y="266.46"/><text fill="#000000" font-family="sans-serif" font-size="12" font-style="italic" lengthAdjust="spacing" textLength="32" x="319.5" y="279.0616">literal</text></g><!--class triples--><g id="elem_triples"><rect codeLine="18" fill="#F1F1F1" height="26.4883" id="triples" rx="2.5" ry="2.5" style="stroke:#181818;stroke-width:0.5;" width="138" x="361.5" y="96.49"/><text fill="#000000" font-family="sans-serif" font-size="14" lengthAdjust="spacing" textLength="94" x="364.5" y="115.0252">ntriple-graph</text><rect fill="#FFFFFF" height="16.1328" style="stroke:#181818;stroke-width:1.0;stroke-dasharray:2.0,2.0;" width="36" x="466.5" y="93.49"/><text fill="#000000" font-family="sans-serif" font-size="12" font-style="italic" lengthAdjust="spacing" textLength="34" x="467.5" y="106.0916">graph</text></g><!--class quad--><g id="elem_quad"><rect codeLine="22" fill="#F1F1F1" height="26.4883" id="quad" rx="2.5" ry="2.5" style="stroke:#181818;stroke-width:0.5;" width="160" x="107.5" y="182.97"/><text fill="#000000" font-family="sans-serif" font-size="14" lengthAdjust="spacing" textLength="120" x="110.5" y="201.5052">nquad-statement</text><rect fill="#FFFFFF" height="16.1328" style="stroke:#181818;stroke-width:1.0;stroke-dasharray:2.0,2.0;" width="32" x="238.5" y="179.97"/><text fill="#000000" font-family="sans-serif" font-size="12" font-style="italic" lengthAdjust="spacing" textLength="30" x="239.5" y="192.5716">quad</text></g><!--class quads--><g id="elem_quads"><rect codeLine="29" fill="#F1F1F1" height="26.4883" id="quads" rx="2.5" ry="2.5" style="stroke:#181818;stroke-width:0.5;" width="137" x="71" y="96.49"/><text fill="#000000" font-family="sans-serif" font-size="14" lengthAdjust="spacing" textLength="93" x="74" y="115.0252">nquad-graph</text><rect fill="#FFFFFF" height="16.1328" style="stroke:#181818;stroke-width:1.0;stroke-dasharray:2.0,2.0;" width="36" x="175" y="93.49"/><text fill="#000000" font-family="sans-serif" font-size="12" font-style="italic" lengthAdjust="spacing" textLength="34" x="176" y="106.0916">graph</text></g><!--class quadds--><g id="elem_quadds"><rect codeLine="34" fill="#F1F1F1" height="26.4883" id="quadds" rx="2.5" ry="2.5" style="stroke:#181818;stroke-width:0.5;" width="155" x="62" y="10"/><text fill="#000000" font-family="sans-serif" font-size="14" lengthAdjust="spacing" textLength="102" x="65" y="28.5352">nquad-dataset</text><rect fill="#FFFFFF" height="16.1328" style="stroke:#181818;stroke-width:1.0;stroke-dasharray:2.0,2.0;" width="45" x="175" y="7"/><text fill="#000000" font-family="sans-serif" font-size="12" font-style="italic" lengthAdjust="spacing" textLength="43" x="176" y="19.6016">dataset</text></g><!--class turtle--><g id="elem_turtle"><rect codeLine="39" fill="#F1F1F1" height="26.4883" id="turtle" rx="2.5" ry="2.5" style="stroke:#181818;stroke-width:0.5;" width="81" x="364" y="10"/><text fill="#000000" font-family="sans-serif" font-size="14" lengthAdjust="spacing" textLength="37" x="367" y="28.5352">turtle</text><rect fill="#FFFFFF" height="16.1328" style="stroke:#181818;stroke-width:1.0;stroke-dasharray:2.0,2.0;" width="36" x="412" y="7"/><text fill="#000000" font-family="sans-serif" font-size="12" font-style="italic" lengthAdjust="spacing" textLength="34" x="413" y="19.6016">graph</text></g><!--class trig--><g id="elem_trig"><rect codeLine="43" fill="#F1F1F1" height="26.4883" id="trig" rx="2.5" ry="2.5" style="stroke:#181818;stroke-width:0.5;" width="77" x="252" y="10"/><text fill="#000000" font-family="sans-serif" font-size="14" lengthAdjust="spacing" textLength="24" x="255" y="28.5352">trig</text><rect fill="#FFFFFF" height="16.1328" style="stroke:#181818;stroke-width:1.0;stroke-dasharray:2.0,2.0;" width="45" x="287" y="7"/><text fill="#000000" font-family="sans-serif" font-size="12" font-style="italic" lengthAdjust="spacing" textLength="43" x="288" y="19.6016">dataset</text></g><!--reverse link formatter to triple--><g id="link_formatter_triple"><path codeLine="8" d="M312.5949,134.9512 C331.1249,150.9212 349.42,166.7 367.98,182.7 " fill="none" id="formatter-backto-triple" style="stroke:#181818;stroke-width:1.0;"/><polygon fill="none" points="298.96,123.2,308.6778,139.4961,316.5119,130.4062,298.96,123.2" style="stroke:#181818;stroke-width:1.0;"/></g><!--link triple to resource--><g id="link_triple_resource"><path codeLine="11" d="M327.4021,213.3271 C272.8421,229.2771 197.219,251.3867 142.719,267.3167 " fill="none" id="triple-resource" style="stroke:#181818;stroke-width:1.0;"/><polygon fill="#181818" points="338.92,209.96,332.0387,207.8043,327.4021,213.3271,334.2834,215.4829,338.92,209.96" style="stroke:#181818;stroke-width:1.0;"/><polygon fill="#181818" points="136.96,269,146.7208,270.3144,141.7592,267.5972,144.4763,262.6357,136.96,269" style="stroke:#181818;stroke-width:1.0;"/></g><!--link triple to bnode--><g id="link_triple_bnode"><path codeLine="13" d="M407.8885,217.0777 C428.2985,233.0577 449.3245,249.4928 469.7745,265.4928 " fill="none" id="triple-bnode" style="stroke:#181818;stroke-width:1.0;"/><polygon fill="#181818" points="398.44,209.68,400.6983,216.5283,407.8885,217.0777,405.6301,210.2293,398.44,209.68" style="stroke:#181818;stroke-width:1.0;"/><polygon fill="#181818" points="474.5,269.19,469.8765,260.4938,470.5621,266.109,464.9469,266.7945,474.5,269.19" style="stroke:#181818;stroke-width:1.0;"/></g><!--link triple to literal--><g id="link_triple_literal"><path codeLine="15" d="M358.5764,217.4278 C339.6764,233.4078 320.8324,249.3168 301.9024,265.3168 " fill="none" id="triple-literal" style="stroke:#181818;stroke-width:1.0;"/><polygon fill="#181818" points="367.74,209.68,360.5756,210.4994,358.5764,217.4278,365.7408,216.6084,367.74,209.68" style="stroke:#181818;stroke-width:1.0;"/><polygon fill="#181818" points="297.32,269.19,306.7757,266.4352,301.1387,265.9624,301.6115,260.3253,297.32,269.19" style="stroke:#181818;stroke-width:1.0;"/></g><!--link resource to literal--><g id="link_resource_literal"><path codeLine="16" d="M186.25,282.71 C197.96,282.71 191.68,282.71 203.4,282.71 " fill="none" id="resource-literal" style="stroke:#181818;stroke-width:1.0;"/><polygon fill="#181818" points="180.25,282.71,189.25,286.71,185.25,282.71,189.25,278.71,180.25,282.71" style="stroke:#181818;stroke-width:1.0;"/><polygon fill="#181818" points="215.4,282.71,209.4,278.71,203.4,282.71,209.4,286.71,215.4,282.71" style="stroke:#181818;stroke-width:1.0;"/></g><!--reverse link formatter to triples--><g id="link_formatter_triples"><path codeLine="19" d="M344.42,109.73 C356.07,109.73 349.73,109.73 361.38,109.73 " fill="none" id="formatter-backto-triples" style="stroke:#181818;stroke-width:1.0;"/><polygon fill="none" points="326.42,109.73,344.42,115.73,344.42,103.73,326.42,109.73" style="stroke:#181818;stroke-width:1.0;"/></g><!--link triples to triple--><g id="link_triples_triple"><path codeLine="20" d="M417.4889,133.6318 C408.4089,149.6018 401.6638,161.4831 392.5738,177.4831 " fill="none" id="triples-triple" style="stroke:#181818;stroke-width:1.0;"/><polygon fill="#181818" points="423.42,123.2,416.9772,126.4388,417.4889,133.6318,423.9317,130.3929,423.42,123.2" style="stroke:#181818;stroke-width:1.0;"/><polygon fill="#181818" points="389.61,182.7,397.5337,176.8506,392.0799,178.3526,390.5778,172.8988,389.61,182.7" style="stroke:#181818;stroke-width:1.0;"/></g><!--reverse link formatter to quad--><g id="link_formatter_quad"><path codeLine="24" d="M256.6152,135.0206 C238.2752,150.9906 220.24,166.7 201.87,182.7 " fill="none" id="formatter-backto-quad" style="stroke:#181818;stroke-width:1.0;"/><polygon fill="none" points="270.19,123.2,252.675,130.4956,260.5554,139.5455,270.19,123.2" style="stroke:#181818;stroke-width:1.0;"/></g><!--link quad to resource--><g id="link_quad_resource"><path codeLine="25" d="M164.7072,217.704 C146.9372,233.684 129.6923,249.179 111.8923,265.179 " fill="none" id="quad-resource" style="stroke:#181818;stroke-width:1.0;"/><polygon fill="#181818" points="173.63,209.68,166.494,210.7177,164.7072,217.704,171.8433,216.6662,173.63,209.68" style="stroke:#181818;stroke-width:1.0;"/><polygon fill="#181818" points="107.43,269.19,116.7974,266.1483,111.1485,265.8475,111.4494,260.1986,107.43,269.19" style="stroke:#181818;stroke-width:1.0;"/></g><!--link quad to bnode--><g id="link_quad_bnode"><path codeLine="26" d="M244.749,213.1832 C301.949,229.1332 382.0104,251.4587 439.1504,267.3887 " fill="none" id="quad-bnode" style="stroke:#181818;stroke-width:1.0;"/><polygon fill="#181818" points="233.19,209.96,237.8951,215.4246,244.749,213.1832,240.0439,207.7186,233.19,209.96" style="stroke:#181818;stroke-width:1.0;"/><polygon fill="#181818" points="444.93,269,437.3348,262.73,440.1137,267.6573,435.1864,270.4361,444.93,269" style="stroke:#181818;stroke-width:1.0;"/></g><!--link quad to literal--><g id="link_quad_literal"><path codeLine="27" d="M210.4851,217.6567 C228.4451,233.6367 245.9577,249.2013 263.9377,265.2013 " fill="none" id="quad-literal" style="stroke:#181818;stroke-width:1.0;"/><polygon fill="#181818" points="201.52,209.68,203.3436,216.6567,210.4851,217.6567,208.6614,210.68,201.52,209.68" style="stroke:#181818;stroke-width:1.0;"/><polygon fill="#181818" points="268.42,269.19,264.3557,260.2188,264.6848,265.8661,259.0375,266.1952,268.42,269.19" style="stroke:#181818;stroke-width:1.0;"/></g><!--link quads to formatter--><g id="link_quads_formatter"><path codeLine="31" d="M208.32,109.73 C219.73,109.73 213.13,109.73 224.54,109.73 " fill="none" id="quads-to-formatter" style="stroke:#181818;stroke-width:1.0;"/><polygon fill="none" points="242.54,109.73,224.54,103.73,224.54,115.73,242.54,109.73" style="stroke:#181818;stroke-width:1.0;"/></g><!--link quads to quad--><g id="link_quads_quad"><path codeLine="32" d="M152.5111,133.6318 C161.5911,149.6018 168.3362,161.4831 177.4262,177.4831 " fill="none" id="quads-quad" style="stroke:#181818;stroke-width:1.0;"/><polygon fill="#181818" points="146.58,123.2,146.0683,130.3929,152.5111,133.6318,153.0228,126.4388,146.58,123.2" style="stroke:#181818;stroke-width:1.0;"/><polygon fill="#181818" points="180.39,182.7,179.4222,172.8988,177.9201,178.3526,172.4663,176.8506,180.39,182.7" style="stroke:#181818;stroke-width:1.0;"/></g><!--link quadds to formatter--><g id="link_quadds_formatter"><path codeLine="36" d="M161.21,36.89 C188.54,52.82 219.6862,70.9702 247.0862,86.9302 " fill="none" id="quadds-to-formatter" style="stroke:#181818;stroke-width:1.0;"/><polygon fill="none" points="262.64,95.99,250.1061,81.7456,244.0663,92.1148,262.64,95.99" style="stroke:#181818;stroke-width:1.0;"/></g><!--link quadds to quads--><g id="link_quadds_quads"><path codeLine="37" d="M139.5,48.71 C139.5,64.68 139.5,74.21 139.5,90.21 " fill="none" id="quadds-quads" style="stroke:#181818;stroke-width:1.0;"/><polygon fill="#181818" points="139.5,36.71,135.5,42.71,139.5,48.71,143.5,42.71,139.5,36.71" style="stroke:#181818;stroke-width:1.0;"/><polygon fill="#181818" points="139.5,96.21,143.5,87.21,139.5,91.21,135.5,87.21,139.5,96.21" style="stroke:#181818;stroke-width:1.0;"/></g><!--link turtle to formatter--><g id="link_turtle_formatter"><path codeLine="40" d="M386.53,36.89 C363.91,52.82 339.9905,69.6711 317.3105,85.6311 " fill="none" id="turtle-to-formatter" style="stroke:#181818;stroke-width:1.0;"/><polygon fill="none" points="302.59,95.99,320.7635,90.538,313.8576,80.7243,302.59,95.99" style="stroke:#181818;stroke-width:1.0;"/></g><!--link turtle to triples--><g id="link_turtle_triples"><path codeLine="41" d="M411.8665,48.1801 C416.7765,64.1501 419.9532,74.476 424.8832,90.476 " fill="none" id="turtle-triples" style="stroke:#181818;stroke-width:1.0;"/><polygon fill="#181818" points="408.34,36.71,406.2799,43.6206,411.8665,48.1801,413.9266,41.2696,408.34,36.71" style="stroke:#181818;stroke-width:1.0;"/><polygon fill="#181818" points="426.65,96.21,427.8225,86.4312,425.1777,91.4317,420.1772,88.7869,426.65,96.21" style="stroke:#181818;stroke-width:1.0;"/></g><!--link trig to formatter--><g id="link_trig_formatter"><path codeLine="44" d="M289.61,36.71 C288.48,52.68 287.8093,62.2555 286.6693,78.2555 " fill="none" id="trig-to-formatter" style="stroke:#181818;stroke-width:1.0;"/><polygon fill="none" points="285.39,96.21,292.6541,78.6819,280.6844,77.8291,285.39,96.21" style="stroke:#181818;stroke-width:1.0;"/></g><!--link trig to turtle--><g id="link_trig_turtle"><path codeLine="45" d="M341.24,23.24 C352.71,23.24 346.17,23.24 357.64,23.24 " fill="none" id="trig-turtle" style="stroke:#181818;stroke-width:1.0;"/><polygon fill="#181818" points="329.24,23.24,335.24,27.24,341.24,23.24,335.24,19.24,329.24,23.24" style="stroke:#181818;stroke-width:1.0;"/><polygon fill="#181818" points="363.64,23.24,354.64,19.24,358.64,23.24,354.64,27.24,363.64,23.24" style="stroke:#181818;stroke-width:1.0;"/></g><!--SRC=[VP5RReKW48RVMGNnqOGTaBEARW1rZfhYfSoOfZazUwymgA2cB_BFF_8nbwvlGC8mquySOAZ0eUYyLVUkje12c0h9cPfayPpSO8Z0wOz78GtAtP2ljn2rDOYo6CdrimM5P0W664cpmLTO-_-ZKikiVXy7wi9nWDFYQj2ROD0M9QXIDTFtg1vxxeogh1a_rJWre0_9kChBErP8d46sNoirLiUJ4J6uWyIKs7ufbOKdfPMUNsYTcJiTlkdWyA2ZP4Wsl2srlyp6WVzQJ9EineVCzqg-n5i4STbASAy3pcsULUvjhUSLNDhpBkxlhxsvlkteMaFIcWzFsCQGGI0TpmETiF-1d-cuusbnP27RHt32EbZnnNmRd2dtFIJ0jOIyJE_4xRQtCEy7LA2AFm00]--></g></svg>