<?xml version="1.0" encoding="us-ascii" standalone="no"?><svg xmlns="http://www.w3.org/2000/svg" xmlns:xlink="http://www.w3.org/1999/xlink" contentStyleType="text/css" height="347px" preserveAspectRatio="none" style="width:529px;height:347px;background:#FFFFFF;" version="1.1" viewBox="0 0 529 347" width="529px" zoomAndPan="magnify"><defs/><g><!--cluster name--><g id="cluster_name"><path d="M408.5,197.62 L448.5,197.62 A3.75,3.75 0 0 1 451,200.12 L458,220.1083 L519.5,220.1083 A2.5,2.5 0 0 1 522,222.6083 L522,337.74 A2.5,2.5 0 0 1 519.5,340.24 L408.5,340.24 A2.5,2.5 0 0 1 406,337.74 L406,200.12 A2.5,2.5 0 0 1 408.5,197.62 " fill="none" style="stroke:#000000;stroke-width:1.5;"/><line style="stroke:#000000;stroke-width:1.5;" x1="406" x2="458" y1="220.1083" y2="220.1083"/><text fill="#000000" font-family="sans-serif" font-size="14" font-weight="bold" lengthAdjust="spacing" textLength="39" x="410" y="213.1552">name</text><text fill="#000000" font-family="sans-serif" font-size="14" font-style="italic" lengthAdjust="spacing" textLength="66" x="435" y="235.6434">&#171;module&#187;</text></g><!--cluster namespace--><g id="cluster_namespace"><path d="M8.5,197.62 L88.5,197.62 A3.75,3.75 0 0 1 91,200.12 L98,220.1083 L379.5,220.1083 A2.5,2.5 0 0 1 382,222.6083 L382,337.74 A2.5,2.5 0 0 1 379.5,340.24 L8.5,340.24 A2.5,2.5 0 0 1 6,337.74 L6,200.12 A2.5,2.5 0 0 1 8.5,197.62 " fill="none" style="stroke:#000000;stroke-width:1.5;"/><line style="stroke:#000000;stroke-width:1.5;" x1="6" x2="98" y1="220.1083" y2="220.1083"/><text fill="#000000" font-family="sans-serif" font-size="14" font-weight="bold" lengthAdjust="spacing" textLength="79" x="10" y="213.1552">namespace</text><text fill="#000000" font-family="sans-serif" font-size="14" font-style="italic" lengthAdjust="spacing" textLength="66" x="165" y="235.6434">&#171;module&#187;</text></g><!--cluster nsmap--><g id="cluster_nsmap"><path d="M189.5,6 L238.5,6 A3.75,3.75 0 0 1 241,8.5 L248,28.4883 L268.5,28.4883 A2.5,2.5 0 0 1 271,30.9883 L271,146.12 A2.5,2.5 0 0 1 268.5,148.62 L189.5,148.62 A2.5,2.5 0 0 1 187,146.12 L187,8.5 A2.5,2.5 0 0 1 189.5,6 " fill="none" style="stroke:#000000;stroke-width:1.5;"/><line style="stroke:#000000;stroke-width:1.5;" x1="187" x2="248" y1="28.4883" y2="28.4883"/><text fill="#000000" font-family="sans-serif" font-size="14" font-weight="bold" lengthAdjust="spacing" textLength="48" x="191" y="21.5352">nsmap</text><text fill="#000000" font-family="sans-serif" font-size="14" font-style="italic" lengthAdjust="spacing" textLength="66" x="200" y="44.0234">&#171;module&#187;</text></g><!--class local_name--><g id="elem_local_name"><rect codeLine="6" fill="#F1F1F1" height="40.6211" id="local_name" rx="2.5" ry="2.5" style="stroke:#181818;stroke-width:0.5;" width="84" x="422" y="283.62"/><text fill="#000000" font-family="sans-serif" font-size="12" font-style="italic" lengthAdjust="spacing" textLength="44" x="442" y="300.2216">&#171;struct&#187;</text><text fill="#000000" font-family="sans-serif" font-size="14" lengthAdjust="spacing" textLength="78" x="425" y="316.288">local-name</text></g><!--class nsprefix--><g id="elem_nsprefix"><rect codeLine="10" fill="#F1F1F1" height="40.6211" id="nsprefix" rx="2.5" ry="2.5" style="stroke:#181818;stroke-width:0.5;" width="132" x="234" y="283.62"/><text fill="#000000" font-family="sans-serif" font-size="12" font-style="italic" lengthAdjust="spacing" textLength="44" x="278" y="300.2216">&#171;struct&#187;</text><text fill="#000000" font-family="sans-serif" font-size="14" lengthAdjust="spacing" textLength="126" x="237" y="316.288">namespace-prefix</text></g><!--class ns--><g id="elem_ns"><rect codeLine="11" fill="#F1F1F1" height="40.6211" id="ns" rx="2.5" ry="2.5" style="stroke:#181818;stroke-width:0.5;" width="83" x="116.5" y="283.62"/><text fill="#000000" font-family="sans-serif" font-size="12" font-style="italic" lengthAdjust="spacing" textLength="44" x="136" y="300.2216">&#171;struct&#187;</text><text fill="#000000" font-family="sans-serif" font-size="14" lengthAdjust="spacing" textLength="77" x="119.5" y="316.288">namespace</text></g><!--class nsname--><g id="elem_nsname"><rect codeLine="12" fill="#F1F1F1" height="40.6211" id="nsname" rx="2.5" ry="2.5" style="stroke:#181818;stroke-width:0.5;" width="60" x="22" y="283.62"/><text fill="#000000" font-family="sans-serif" font-size="12" font-style="italic" lengthAdjust="spacing" textLength="44" x="30" y="300.2216">&#171;struct&#187;</text><text fill="#000000" font-family="sans-serif" font-size="14" lengthAdjust="spacing" textLength="54" x="25" y="316.288">nsname</text></g><!--class nsmap--><g id="elem_nsmap"><rect codeLine="19" fill="#F1F1F1" height="40.6211" id="nsmap" rx="2.5" ry="2.5" style="stroke:#181818;stroke-width:0.5;" width="52" x="203" y="92"/><text fill="#000000" font-family="sans-serif" font-size="12" font-style="italic" lengthAdjust="spacing" textLength="44" x="207" y="108.6016">&#171;struct&#187;</text><text fill="#000000" font-family="sans-serif" font-size="14" lengthAdjust="spacing" textLength="46" x="206" y="124.668">nsmap</text></g><!--link nsname to ns--><g id="link_nsname_ns"><path codeLine="14" d="M94.38,303.93 C104.9,303.93 98.89,303.93 110.17,303.93 " fill="none" id="nsname-ns" style="stroke:#181818;stroke-width:1.0;"/><polygon fill="#181818" points="82.38,303.93,88.38,307.93,94.38,303.93,88.38,299.93,82.38,303.93" style="stroke:#181818;stroke-width:1.0;"/><polygon fill="#181818" points="116.17,303.93,107.17,299.93,111.17,303.93,107.17,307.93,116.17,303.93" style="stroke:#181818;stroke-width:1.0;"/></g><!--link local_name to nsname--><g id="link_local_name_nsname"><path codeLine="15" d="M450.8624,278.046 C437.8524,254.456 415.86,222.34 382,206.59 C324.98,180.06 152.27,173.16 99,206.59 C72.3,223.35 62.9336,248.3005 57.9136,271.5405 " fill="none" id="local_name-nsname" style="stroke:#181818;stroke-width:1.0;"/><polygon fill="#181818" points="453.76,283.3,452.9163,273.4873,451.3453,278.9217,445.911,277.3508,453.76,283.3" style="stroke:#181818;stroke-width:1.0;"/><polygon fill="#181818" points="55.38,283.27,60.5566,278.2498,57.9136,271.5405,52.737,276.5607,55.38,283.27" style="stroke:#181818;stroke-width:1.0;"/></g><!--link nsmap to ns--><g id="link_nsmap_ns"><path codeLine="20" d="M202.69,130.78 C191.64,139.56 179.79,151.21 173,164.62 C153.48,203.19 153.4832,249.4559 155.5232,277.4059 " fill="none" id="nsmap-to-ns" style="stroke:#181818;stroke-width:1.0;stroke-dasharray:7.0,7.0;"/><polygon fill="#181818" points="155.96,283.39,159.2942,274.1227,155.596,278.4033,151.3155,274.7051,155.96,283.39" style="stroke:#181818;stroke-width:1.0;"/><text fill="#000000" font-family="sans-serif" font-size="13" lengthAdjust="spacing" textLength="47" x="174" y="178.1884">&#171;value&#187;</text></g><!--link nsmap to nsprefix--><g id="link_nsmap_nsprefix"><path codeLine="21" d="M236.33,132.89 C249.94,169.22 276.8468,241.0807 290.4968,277.5507 " fill="none" id="nsmap-to-nsprefix" style="stroke:#181818;stroke-width:1.0;stroke-dasharray:7.0,7.0;"/><polygon fill="#181818" points="292.6,283.17,293.1914,273.3389,290.8473,278.4872,285.699,276.1432,292.6,283.17" style="stroke:#181818;stroke-width:1.0;"/><text fill="#000000" font-family="sans-serif" font-size="13" lengthAdjust="spacing" textLength="36" x="254" y="178.1884">&#171;key&#187;</text></g><!--SRC=[TP3H3eCW34NV-Oh6noNw0OlnLnQ6LOc0XE8si_Zl0sLRDCfRxpszRUbaZO3Q-WaqwZiwObsKX7H28J5ckUXvYs2uHYXBFTIZmgg2DuFmXE94aAb1S9L790DEi9Itr47UZSB7ZfdDspmAnNdeZyYjmqQ-bcX3Qx4BFcfB_2bfw633nK_E9NUoxNnU1M6hAsoY_BzpSnbfRi-k-fhxbLQzg8UdAU8yk0RemTKO0Ww1z0qHwt4AqCm-]--></g></svg>