<?xml version="1.0" encoding="us-ascii" standalone="no"?><svg xmlns="http://www.w3.org/2000/svg" xmlns:xlink="http://www.w3.org/1999/xlink" contentStyleType="text/css" height="907px" preserveAspectRatio="none" style="width:521px;height:907px;background:#FFFFFF;" version="1.1" viewBox="0 0 521 907" width="521px" zoomAndPan="magnify"><defs/><g><!--cluster rdf--><g id="cluster_rdf"><path d="M8.5,6 L30.5,6 A3.75,3.75 0 0 1 33,8.5 L40,28.4883 L511.5,28.4883 A2.5,2.5 0 0 1 514,30.9883 L514,898.47 A2.5,2.5 0 0 1 511.5,900.97 L8.5,900.97 A2.5,2.5 0 0 1 6,898.47 L6,8.5 A2.5,2.5 0 0 1 8.5,6 " fill="none" style="stroke:#000000;stroke-width:1.5;"/><line style="stroke:#000000;stroke-width:1.5;" x1="6" x2="40" y1="28.4883" y2="28.4883"/><text fill="#000000" font-family="sans-serif" font-size="14" font-weight="bold" lengthAdjust="spacing" textLength="21" x="10" y="21.5352">rdf</text><text fill="#000000" font-family="sans-serif" font-size="14" font-style="italic" lengthAdjust="spacing" textLength="66" x="231" y="44.0234">&#171;module&#187;</text></g><!--cluster core--><g id="cluster_core"><path d="M32.5,65 L63.5,65 A3.75,3.75 0 0 1 66,67.5 L73,87.4883 L487.5,87.4883 A2.5,2.5 0 0 1 490,89.9883 L490,874.47 A2.5,2.5 0 0 1 487.5,876.97 L32.5,876.97 A2.5,2.5 0 0 1 30,874.47 L30,67.5 A2.5,2.5 0 0 1 32.5,65 " fill="none" style="stroke:#000000;stroke-width:1.5;"/><line style="stroke:#000000;stroke-width:1.5;" x1="30" x2="73" y1="87.4883" y2="87.4883"/><text fill="#000000" font-family="sans-serif" font-size="14" font-weight="bold" lengthAdjust="spacing" textLength="30" x="34" y="80.5352">core</text><text fill="#000000" font-family="sans-serif" font-size="14" font-style="italic" lengthAdjust="spacing" textLength="66" x="231" y="103.0234">&#171;module&#187;</text></g><!--class name--><g id="elem_name"><rect codeLine="7" fill="#F1F1F1" height="40.6211" id="name" rx="2.5" ry="2.5" style="stroke:#181818;stroke-width:0.5;" width="57" x="342.5" y="820.35"/><text fill="#000000" font-family="sans-serif" font-size="12" font-style="italic" lengthAdjust="spacing" textLength="55" x="343.5" y="836.9516">&#171;module&#187;</text><text fill="#000000" font-family="sans-serif" font-size="14" lengthAdjust="spacing" textLength="38" x="352" y="853.018">name</text></g><!--class namespace--><g id="elem_namespace"><rect codeLine="8" fill="#F1F1F1" height="40.6211" id="namespace" rx="2.5" ry="2.5" style="stroke:#181818;stroke-width:0.5;" width="83" x="239.5" y="719.73"/><text fill="#000000" font-family="sans-serif" font-size="12" font-style="italic" lengthAdjust="spacing" textLength="55" x="253.5" y="736.3316">&#171;module&#187;</text><text fill="#000000" font-family="sans-serif" font-size="14" lengthAdjust="spacing" textLength="77" x="242.5" y="752.398">namespace</text></g><!--class nsmap--><g id="elem_nsmap"><rect codeLine="9" fill="#F1F1F1" height="40.6211" id="nsmap" rx="2.5" ry="2.5" style="stroke:#181818;stroke-width:0.5;" width="57" x="407.5" y="619.11"/><text fill="#000000" font-family="sans-serif" font-size="12" font-style="italic" lengthAdjust="spacing" textLength="55" x="408.5" y="635.7116">&#171;module&#187;</text><text fill="#000000" font-family="sans-serif" font-size="14" lengthAdjust="spacing" textLength="46" x="413" y="651.778">nsmap</text></g><!--class literal--><g id="elem_literal"><rect codeLine="10" fill="#F1F1F1" height="40.6211" id="literal" rx="2.5" ry="2.5" style="stroke:#181818;stroke-width:0.5;" width="57" x="240.5" y="619.11"/><text fill="#000000" font-family="sans-serif" font-size="12" font-style="italic" lengthAdjust="spacing" textLength="55" x="241.5" y="635.7116">&#171;module&#187;</text><text fill="#000000" font-family="sans-serif" font-size="14" lengthAdjust="spacing" textLength="39" x="249.5" y="651.778">literal</text></g><!--class statement--><g id="elem_statement"><rect codeLine="11" fill="#F1F1F1" height="40.6211" id="statement" rx="2.5" ry="2.5" style="stroke:#181818;stroke-width:0.5;" width="74" x="122" y="518.49"/><text fill="#000000" font-family="sans-serif" font-size="12" font-style="italic" lengthAdjust="spacing" textLength="55" x="131.5" y="535.0916">&#171;module&#187;</text><text fill="#000000" font-family="sans-serif" font-size="14" lengthAdjust="spacing" textLength="68" x="125" y="551.158">statement</text></g><!--class triple--><g id="elem_triple"><rect codeLine="12" fill="#F1F1F1" height="40.6211" id="triple" rx="2.5" ry="2.5" style="stroke:#181818;stroke-width:0.5;" width="57" x="231.5" y="417.86"/><text fill="#000000" font-family="sans-serif" font-size="12" font-style="italic" lengthAdjust="spacing" textLength="55" x="232.5" y="434.4616">&#171;module&#187;</text><text fill="#000000" font-family="sans-serif" font-size="14" lengthAdjust="spacing" textLength="36" x="242" y="450.528">triple</text></g><!--class graph--><g id="elem_graph"><rect codeLine="13" fill="#F1F1F1" height="40.6211" id="graph" rx="2.5" ry="2.5" style="stroke:#181818;stroke-width:0.5;" width="57" x="268.5" y="317.24"/><text fill="#000000" font-family="sans-serif" font-size="12" font-style="italic" lengthAdjust="spacing" textLength="55" x="269.5" y="333.8416">&#171;module&#187;</text><text fill="#000000" font-family="sans-serif" font-size="14" lengthAdjust="spacing" textLength="41" x="276.5" y="349.908">graph</text></g><!--class quad--><g id="elem_quad"><rect codeLine="14" fill="#F1F1F1" height="40.6211" id="quad" rx="2.5" ry="2.5" style="stroke:#181818;stroke-width:0.5;" width="57" x="342.5" y="216.62"/><text fill="#000000" font-family="sans-serif" font-size="12" font-style="italic" lengthAdjust="spacing" textLength="55" x="343.5" y="233.2216">&#171;module&#187;</text><text fill="#000000" font-family="sans-serif" font-size="14" lengthAdjust="spacing" textLength="35" x="353.5" y="249.288">quad</text></g><!--class dataset--><g id="elem_dataset"><rect codeLine="15" fill="#F1F1F1" height="40.6211" id="dataset" rx="2.5" ry="2.5" style="stroke:#181818;stroke-width:0.5;" width="57" x="212.5" y="216.62"/><text fill="#000000" font-family="sans-serif" font-size="12" font-style="italic" lengthAdjust="spacing" textLength="55" x="213.5" y="233.2216">&#171;module&#187;</text><text fill="#000000" font-family="sans-serif" font-size="14" lengthAdjust="spacing" textLength="50" x="216" y="249.288">dataset</text></g><!--class gq--><g id="elem_gq"><rect codeLine="16" fill="#F1F1F1" height="40.6211" id="gq" rx="2.5" ry="2.5" style="stroke:#181818;stroke-width:0.5;" width="57" x="120.5" y="216.62"/><text fill="#000000" font-family="sans-serif" font-size="12" font-style="italic" lengthAdjust="spacing" textLength="55" x="121.5" y="233.2216">&#171;module&#187;</text><text fill="#000000" font-family="sans-serif" font-size="14" lengthAdjust="spacing" textLength="18" x="140" y="249.288">gq</text></g><!--class io--><g id="elem_io"><rect codeLine="17" fill="#F1F1F1" height="40.6211" id="io" rx="2.5" ry="2.5" style="stroke:#181818;stroke-width:0.5;" width="57" x="212.5" y="116"/><text fill="#000000" font-family="sans-serif" font-size="12" font-style="italic" lengthAdjust="spacing" textLength="55" x="213.5" y="132.6016">&#171;module&#187;</text><text fill="#000000" font-family="sans-serif" font-size="14" lengthAdjust="spacing" textLength="13" x="234.5" y="148.668">io</text></g><!--class v--><g id="elem_v"><rect codeLine="18" fill="#F1F1F1" height="40.6211" id="v" rx="2.5" ry="2.5" style="stroke:#181818;stroke-width:0.5;" width="57" x="379.5" y="518.49"/><text fill="#000000" font-family="sans-serif" font-size="12" font-style="italic" lengthAdjust="spacing" textLength="55" x="380.5" y="535.0916">&#171;module&#187;</text><text fill="#000000" font-family="sans-serif" font-size="14" lengthAdjust="spacing" textLength="7" x="404.5" y="551.158">v</text></g><!--link namespace to name--><g id="link_namespace_name"><path codeLine="20" d="M298.78,760.52 C314.46,777.7 333.1455,798.178 348.9055,815.448 " fill="none" id="namespace-to-name" style="stroke:#181818;stroke-width:1.0;stroke-dasharray:7.0,7.0;"/><polygon fill="#181818" points="352.95,819.88,349.838,810.5357,349.5796,816.1867,343.9287,815.9284,352.95,819.88" style="stroke:#181818;stroke-width:1.0;"/></g><!--link nsmap to name--><g id="link_nsmap_name"><path codeLine="21" d="M429.65,659.88 C417.22,697.97 391.6801,776.2556 379.2401,814.4056 " fill="none" id="nsmap-to-name" style="stroke:#181818;stroke-width:1.0;stroke-dasharray:7.0,7.0;"/><polygon fill="#181818" points="377.38,820.11,383.9731,812.7935,378.9301,815.3563,376.3672,810.3134,377.38,820.11" style="stroke:#181818;stroke-width:1.0;"/></g><!--link nsmap to namespace--><g id="link_nsmap_namespace"><path codeLine="22" d="M407.21,658.74 C380.16,675.95 344.8516,698.4082 317.0916,716.0782 " fill="none" id="nsmap-to-namespace" style="stroke:#181818;stroke-width:1.0;stroke-dasharray:7.0,7.0;"/><polygon fill="#181818" points="312.03,719.3,321.7703,717.8416,316.248,716.6151,317.4745,711.0928,312.03,719.3" style="stroke:#181818;stroke-width:1.0;"/></g><!--link literal to namespace--><g id="link_literal_namespace"><path codeLine="23" d="M271.37,659.9 C273.46,677.08 275.7657,696.0339 277.8657,713.3039 " fill="none" id="literal-to-namespace" style="stroke:#181818;stroke-width:1.0;stroke-dasharray:7.0,7.0;"/><polygon fill="#181818" points="278.59,719.26,281.4744,709.843,277.9865,714.2966,273.5329,710.8086,278.59,719.26" style="stroke:#181818;stroke-width:1.0;"/></g><!--link statement to namespace--><g id="link_statement_namespace"><path codeLine="24" d="M168.38,559.38 C180.19,583.52 201.54,625.55 223,659.73 C236.25,680.82 249.5789,698.9041 261.7389,714.6241 " fill="none" id="statement-to-namespace" style="stroke:#181818;stroke-width:1.0;stroke-dasharray:7.0,7.0;"/><polygon fill="#181818" points="265.41,719.37,263.0673,709.8038,262.3508,715.4151,256.7395,714.6986,265.41,719.37" style="stroke:#181818;stroke-width:1.0;"/></g><!--link statement to literal--><g id="link_statement_literal"><path codeLine="25" d="M181,559.52 C200.18,576.72 223.4029,597.5343 242.5729,614.7243 " fill="none" id="statement-to-literal" style="stroke:#181818;stroke-width:1.0;stroke-dasharray:7.0,7.0;"/><polygon fill="#181818" points="247.04,618.73,243.0099,609.7435,243.3175,615.3919,237.669,615.6995,247.04,618.73" style="stroke:#181818;stroke-width:1.0;"/></g><!--link triple to literal--><g id="link_triple_literal"><path codeLine="26" d="M259.32,458.72 C258.66,482.48 258,523.77 260,559.11 C261.16,579.58 263.1846,596.9443 265.3546,612.9643 " fill="none" id="triple-to-literal" style="stroke:#181818;stroke-width:1.0;stroke-dasharray:7.0,7.0;"/><polygon fill="#181818" points="266.16,618.91,268.9157,609.4545,265.4889,613.9552,260.9881,610.5284,266.16,618.91" style="stroke:#181818;stroke-width:1.0;"/></g><!--link triple to statement--><g id="link_triple_statement"><path codeLine="27" d="M240.05,458.66 C222.45,475.84 201.2333,496.5587 183.5533,513.8187 " fill="none" id="triple-to-statement" style="stroke:#181818;stroke-width:1.0;stroke-dasharray:7.0,7.0;"/><polygon fill="#181818" points="179.26,518.01,188.4942,514.5852,182.8378,514.5172,182.9058,508.8608,179.26,518.01" style="stroke:#181818;stroke-width:1.0;"/></g><!--link graph to literal--><g id="link_graph_literal"><path codeLine="28" d="M299.84,358.06 C302.01,374.08 304.84,397.39 306,417.86 C307.02,435.89 307.83,440.52 306,458.49 C302.83,489.66 284.0772,573.1432 274.8972,612.9832 " fill="none" id="graph-to-literal" style="stroke:#181818;stroke-width:1.0;stroke-dasharray:7.0,7.0;"/><polygon fill="#181818" points="273.55,618.83,279.4687,610.958,274.6727,613.9577,271.673,609.1617,273.55,618.83" style="stroke:#181818;stroke-width:1.0;"/></g><!--link graph to statement--><g id="link_graph_statement"><path codeLine="29" d="M271.67,358.33 C253.83,373.24 230.31,394.98 214,417.86 C191.01,450.14 175.9441,487.894 167.3141,512.664 " fill="none" id="graph-to-statement" style="stroke:#181818;stroke-width:1.0;stroke-dasharray:7.0,7.0;"/><polygon fill="#181818" points="165.34,518.33,172.0784,511.1471,166.985,513.6084,164.5238,508.515,165.34,518.33" style="stroke:#181818;stroke-width:1.0;"/></g><!--link graph to triple--><g id="link_graph_triple"><path codeLine="30" d="M289.69,358.04 C283.25,375.22 276.0089,394.5128 269.5289,411.7728 " fill="none" id="graph-to-triple" style="stroke:#181818;stroke-width:1.0;stroke-dasharray:7.0,7.0;"/><polygon fill="#181818" points="267.42,417.39,274.3281,410.3702,269.1774,412.709,266.8385,407.5583,267.42,417.39" style="stroke:#181818;stroke-width:1.0;"/></g><!--link quad to graph--><g id="link_quad_graph"><path codeLine="31" d="M356.38,257.42 C343.49,274.59 328.4027,294.712 315.4427,311.972 " fill="none" id="quad-to-graph" style="stroke:#181818;stroke-width:1.0;stroke-dasharray:7.0,7.0;"/><polygon fill="#181818" points="311.84,316.77,320.4427,311.9748,314.8422,312.7717,314.0453,307.1712,311.84,316.77" style="stroke:#181818;stroke-width:1.0;"/></g><!--link quad to literal--><g id="link_quad_literal"><path codeLine="32" d="M372.3,257.64 C373.48,281.55 374.18,323 368,357.86 C349.97,459.58 302.2402,568.169 281.1002,613.189 " fill="none" id="quad-to-literal" style="stroke:#181818;stroke-width:1.0;stroke-dasharray:7.0,7.0;"/><polygon fill="#181818" points="278.55,618.62,285.9961,612.1736,280.6752,614.0941,278.7547,608.7733,278.55,618.62" style="stroke:#181818;stroke-width:1.0;"/></g><!--link quad to statement--><g id="link_quad_statement"><path codeLine="33" d="M370.47,257.57 C368.34,299.49 357.77,398.76 306,458.49 C276.75,492.23 235.1262,512.0226 202.1162,524.0726 " fill="none" id="quad-to-statement" style="stroke:#181818;stroke-width:1.0;stroke-dasharray:7.0,7.0;"/><polygon fill="#181818" points="196.48,526.13,206.306,526.8013,201.1768,524.4155,203.5627,519.2864,196.48,526.13" style="stroke:#181818;stroke-width:1.0;"/></g><!--link dataset to graph--><g id="link_dataset_graph"><path codeLine="34" d="M252.06,257.42 C261.82,274.59 272.9952,294.2937 282.8052,311.5537 " fill="none" id="dataset-to-graph" style="stroke:#181818;stroke-width:1.0;stroke-dasharray:7.0,7.0;"/><polygon fill="#181818" points="285.77,316.77,284.8004,306.969,283.2993,312.4231,277.8453,310.922,285.77,316.77" style="stroke:#181818;stroke-width:1.0;"/></g><!--link dataset to statement--><g id="link_dataset_statement"><path codeLine="35" d="M233.61,257.66 C221.52,290.51 197.32,358.67 182,417.86 C172.97,452.76 166.7321,488.2744 162.9321,512.1744 " fill="none" id="dataset-to-statement" style="stroke:#181818;stroke-width:1.0;stroke-dasharray:7.0,7.0;"/><polygon fill="#181818" points="161.99,518.1,167.3536,509.8397,162.7751,513.162,159.4528,508.5836,161.99,518.1" style="stroke:#181818;stroke-width:1.0;"/></g><!--link dataset to triple--><g id="link_dataset_triple"><path codeLine="36" d="M242.45,257.48 C244.25,281.23 247.52,322.52 251,357.86 C253.01,378.28 254.9873,395.6325 256.9073,411.6825 " fill="none" id="dataset-to-triple" style="stroke:#181818;stroke-width:1.0;stroke-dasharray:7.0,7.0;"/><polygon fill="#181818" points="257.62,417.64,260.5227,408.2286,257.0261,412.6754,252.5793,409.1788,257.62,417.64" style="stroke:#181818;stroke-width:1.0;"/></g><!--link gq to statement--><g id="link_gq_statement"><path codeLine="37" d="M148.17,257.73 C146.73,296.37 144.36,384.54 149,458.49 C150.29,478.98 152.5333,496.3574 154.9533,512.3674 " fill="none" id="gq-to-statement" style="stroke:#181818;stroke-width:1.0;stroke-dasharray:7.0,7.0;"/><polygon fill="#181818" points="155.85,518.3,158.46,508.8033,155.1027,513.3562,150.5498,509.9989,155.85,518.3" style="stroke:#181818;stroke-width:1.0;"/></g><!--link gq to graph--><g id="link_gq_graph"><path codeLine="38" d="M177.89,257.18 C203.97,274.56 237.1365,296.6636 263.1965,314.0236 " fill="none" id="gq-to-graph" style="stroke:#181818;stroke-width:1.0;stroke-dasharray:7.0,7.0;"/><polygon fill="#181818" points="268.19,317.35,262.9174,309.0314,264.0288,314.578,258.4822,315.6893,268.19,317.35" style="stroke:#181818;stroke-width:1.0;"/></g><!--link io to namespace--><g id="link_io_namespace"><path codeLine="39" d="M212.21,143.46 C175.51,152.83 112.66,174.23 78,216.62 C43.15,259.24 47,281.5 47,336.55 C47,336.55 47,336.55 47,539.8 C47,639.57 166.2428,697.7812 233.5528,723.0512 " fill="none" id="io-to-namespace" style="stroke:#181818;stroke-width:1.0;stroke-dasharray:7.0,7.0;"/><polygon fill="#181818" points="239.17,725.16,232.1501,718.2519,234.489,723.4026,229.3383,725.7415,239.17,725.16" style="stroke:#181818;stroke-width:1.0;"/></g><!--link io to nsmap--><g id="link_io_nsmap"><path codeLine="40" d="M269.9,141.19 C312.33,148.4 391.3,167.86 436,216.62 C473.69,257.74 473,280.77 473,336.55 C473,336.55 473,336.55 473,439.18 C473,506.02 454.325,577.6374 443.815,613.0974 " fill="none" id="io-to-nsmap" style="stroke:#181818;stroke-width:1.0;stroke-dasharray:7.0,7.0;"/><polygon fill="#181818" points="442.11,618.85,448.5026,611.3577,443.5309,614.0561,440.8324,609.0844,442.11,618.85" style="stroke:#181818;stroke-width:1.0;"/></g><!--link io to literal--><g id="link_io_literal"><path codeLine="41" d="M269.67,140.73 C310.55,147.33 384.26,165.95 417,216.62 C502.8,349.39 391.46,417.59 321,559.11 C310.36,580.48 298.599,598.213 287.359,613.803 " fill="none" id="io-to-literal" style="stroke:#181818;stroke-width:1.0;stroke-dasharray:7.0,7.0;"/><polygon fill="#181818" points="283.85,618.67,292.3581,613.7089,286.7741,614.6142,285.8688,609.0303,283.85,618.67" style="stroke:#181818;stroke-width:1.0;"/></g><!--link io to statement--><g id="link_io_statement"><path codeLine="42" d="M212.12,144.56 C179.04,154.59 126.39,176.2 103,216.62 C44.32,318.03 114.1803,460.2165 144.2103,512.9365 " fill="none" id="io-to-statement" style="stroke:#181818;stroke-width:1.0;stroke-dasharray:7.0,7.0;"/><polygon fill="#181818" points="147.18,518.15,146.2011,508.3499,144.7053,513.8054,139.2498,512.3095,147.18,518.15" style="stroke:#181818;stroke-width:1.0;"/></g><!--link io to graph--><g id="link_io_graph"><path codeLine="43" d="M255.77,157.01 C266.43,172.39 280.13,194.75 287,216.62 C297.71,250.71 298.7189,286.7718 298.1189,310.9418 " fill="none" id="io-to-graph" style="stroke:#181818;stroke-width:1.0;stroke-dasharray:7.0,7.0;"/><polygon fill="#181818" points="297.97,316.94,302.1921,308.042,298.0941,311.9415,294.1946,307.8435,297.97,316.94" style="stroke:#181818;stroke-width:1.0;"/></g><!--link io to dataset--><g id="link_io_dataset"><path codeLine="44" d="M241,156.8 C241,173.97 241,192.89 241,210.15 " fill="none" id="io-to-dataset" style="stroke:#181818;stroke-width:1.0;stroke-dasharray:7.0,7.0;"/><polygon fill="#181818" points="241,216.15,245,207.15,241,211.15,237,207.15,241,216.15" style="stroke:#181818;stroke-width:1.0;"/></g><!--link io to gq--><g id="link_io_gq"><path codeLine="45" d="M222.82,156.8 C206.8,173.97 187.654,194.5038 171.544,211.7638 " fill="none" id="io-to-gq" style="stroke:#181818;stroke-width:1.0;stroke-dasharray:7.0,7.0;"/><polygon fill="#181818" points="167.45,216.15,176.5152,212.3,170.8617,212.4948,170.6668,206.8413,167.45,216.15" style="stroke:#181818;stroke-width:1.0;"/></g><!--link v to name--><g id="link_v_name"><path codeLine="46" d="M402.73,559.53 C398.66,575.49 393.2,598.6 390,619.11 C378.52,692.78 373.8015,775.4561 372.0515,814.0861 " fill="none" id="v-to-name" style="stroke:#181818;stroke-width:1.0;stroke-dasharray:7.0,7.0;"/><polygon fill="#181818" points="371.78,820.08,376.1832,811.2702,372.0063,815.0851,368.1914,810.9082,371.78,820.08" style="stroke:#181818;stroke-width:1.0;"/></g><!--link v to namespace--><g id="link_v_namespace"><path codeLine="47" d="M395.59,559.26 C371.31,597.35 321.0053,676.2806 296.6853,714.4306 " fill="none" id="v-to-namespace" style="stroke:#181818;stroke-width:1.0;stroke-dasharray:7.0,7.0;"/><polygon fill="#181818" points="293.46,719.49,301.6709,714.0511,296.1477,715.2738,294.925,709.7507,293.46,719.49" style="stroke:#181818;stroke-width:1.0;"/></g><!--link v to nsmap--><g id="link_v_nsmap"><path codeLine="48" d="M413.53,559.28 C418.41,576.46 423.8423,595.5978 428.7423,612.8678 " fill="none" id="v-to-nsmap" style="stroke:#181818;stroke-width:1.0;stroke-dasharray:7.0,7.0;"/><polygon fill="#181818" points="430.38,618.64,431.7715,608.8899,429.0152,613.8299,424.0753,611.0736,430.38,618.64" style="stroke:#181818;stroke-width:1.0;"/></g><!--SRC=[ZP9RRiCW44N_MGKho0eYxsKA4niLOWp4KbHvxxM9mIcGSVdZdZiFPXYKH8x6XYStQBxGUJPiab1EQFICMH3Vq2DtyiQlLpFAXyQkup-ChoT1CJgiwNQ41k_v7SnVlZGCVirsul86BEdGAg03JNfyW806xu5q1QUifjlf7TY1T4mFaAH1GW2FT2VzH68radWkQCR7o2-NBjuE5ETy8iVOpDBWs_GO-N_udYlJVHKdAEV8yBMVLjX1gAXNyWpYCZSzEcgvB991NIEjlSxsJkYuehlrbtnupzGeitwQzYOIs5PTYkK3TxakkODcoVq9bNTAGYPp_GFd3rtFHTCBMzWl]--></g></svg>