<?xml version="1.0" encoding="us-ascii" standalone="no"?><svg xmlns="http://www.w3.org/2000/svg" xmlns:xlink="http://www.w3.org/1999/xlink" contentStyleType="text/css" height="53px" preserveAspectRatio="none" style="width:275px;height:53px;background:#FFFFFF;" version="1.1" viewBox="0 0 275 53" width="275px" zoomAndPan="magnify"><defs/><g><!--class rdf--><g id="elem_rdf"><rect codeLine="5" fill="#F1F1F1" height="40.6211" id="rdf" rx="2.5" ry="2.5" style="stroke:#181818;stroke-width:0.5;" width="63" x="205" y="7"/><text fill="#000000" font-family="sans-serif" font-size="12" font-style="italic" lengthAdjust="spacing" textLength="61" x="206" y="23.6016">&#171;package&#187;</text><text fill="#000000" font-family="sans-serif" font-size="14" lengthAdjust="spacing" textLength="20" x="226.5" y="39.668">rdf</text></g><!--class core--><g id="elem_core"><rect codeLine="6" fill="#F1F1F1" height="40.6211" id="core" rx="2.5" ry="2.5" style="stroke:#181818;stroke-width:0.5;" width="64" x="105.5" y="7"/><text fill="#000000" font-family="sans-serif" font-size="12" font-style="italic" lengthAdjust="spacing" textLength="61" x="107" y="23.6016">&#171;package&#187;</text><text fill="#000000" font-family="sans-serif" font-size="14" lengthAdjust="spacing" textLength="58" x="108.5" y="39.668">rdf-core</text></g><!--class dc--><g id="elem_dc"><rect codeLine="7" fill="#F1F1F1" height="40.6211" id="dc" rx="2.5" ry="2.5" style="stroke:#181818;stroke-width:0.5;" width="63" x="7" y="7"/><text fill="#000000" font-family="sans-serif" font-size="12" font-style="italic" lengthAdjust="spacing" textLength="61" x="8" y="23.6016">&#171;package&#187;</text><text fill="#000000" font-family="sans-serif" font-size="14" lengthAdjust="spacing" textLength="44" x="16.5" y="39.668">rdf-dc</text></g><!--link core to rdf--><g id="link_core_rdf"><path codeLine="8" d="M169.98,27.31 C181.5,27.31 187.02,27.31 198.54,27.31 " fill="none" id="core-to-rdf" style="stroke:#181818;stroke-width:1.0;stroke-dasharray:7.0,7.0;"/><polygon fill="#181818" points="204.54,27.31,195.54,23.31,199.54,27.31,195.54,31.31,204.54,27.31" style="stroke:#181818;stroke-width:1.0;"/></g><!--link dc to core--><g id="link_dc_core"><path codeLine="9" d="M70.21,27.31 C81.86,27.31 87.52,27.31 99.17,27.31 " fill="none" id="dc-to-core" style="stroke:#181818;stroke-width:1.0;stroke-dasharray:7.0,7.0;"/><polygon fill="#181818" points="105.17,27.31,96.17,23.31,100.17,27.31,96.17,31.31,105.17,27.31" style="stroke:#181818;stroke-width:1.0;"/></g><!--SRC=[VOr12e0m30JlUKNmRbyW_KjDeorQbAGN4V-k4V4YUClkp9AK8oENjMvOkFGi2iagoa8pAm3DGHKb3jXrQw0fZEmzxiS3cekqj0Wt61Jj-F4YtLQaZsCx9tbCrNbx1fVpPgDm0W00]--></g></svg>