<?xml version="1.0" encoding="us-ascii" standalone="no"?><svg xmlns="http://www.w3.org/2000/svg" xmlns:xlink="http://www.w3.org/1999/xlink" contentStyleType="text/css" height="594px" preserveAspectRatio="none" style="width:891px;height:594px;background:#FFFFFF;" version="1.1" viewBox="0 0 891 594" width="891px" zoomAndPan="magnify"><defs/><g><!--class IRI--><g id="elem_IRI"><rect codeLine="7" fill="#FFFFFF" height="40.6211" id="IRI" rx="2.5" ry="2.5" style="stroke:#181818;stroke-width:0.5;" width="65" x="439" y="416.06"/><text fill="#000000" font-family="sans-serif" font-size="12" font-style="italic" lengthAdjust="spacing" textLength="63" x="440" y="432.6616">&#171;datatype&#187;</text><text fill="#000000" font-family="sans-serif" font-size="14" lengthAdjust="spacing" textLength="17" x="463" y="448.728">IRI</text></g><!--class Resource--><g id="elem_Resource"><rect codeLine="9" fill="#D3D3D3" height="26.4883" id="Resource" rx="2.5" ry="2.5" style="stroke:#181818;stroke-width:0.5;" width="69" x="638" y="523.75"/><text fill="#000000" font-family="sans-serif" font-size="14" lengthAdjust="spacing" textLength="63" x="641" y="542.2852">Resource</text></g><!--class Namespace--><g id="elem_Namespace"><rect codeLine="12" fill="#F1F1F1" height="26.4883" id="Namespace" rx="2.5" ry="2.5" style="stroke:#181818;stroke-width:0.5;" width="84" x="103.5" y="523.75"/><text fill="#000000" font-family="sans-serif" font-size="14" lengthAdjust="spacing" textLength="78" x="106.5" y="542.2852">Namespace</text></g><!--class Schema--><g id="elem_Schema"><rect codeLine="15" fill="#F1F1F1" height="26.4883" id="Schema" rx="2.5" ry="2.5" style="stroke:#181818;stroke-width:0.5;" width="59" x="474" y="523.75"/><text fill="#000000" font-family="sans-serif" font-size="14" font-style="italic" lengthAdjust="spacing" textLength="53" x="477" y="542.2852">Schema</text></g><!--class Vocabulary--><g id="elem_Vocabulary"><rect codeLine="18" fill="#F1F1F1" height="26.4883" id="Vocabulary" rx="2.5" ry="2.5" style="stroke:#181818;stroke-width:0.5;" width="82" x="357.5" y="523.75"/><text fill="#000000" font-family="sans-serif" font-size="14" lengthAdjust="spacing" textLength="76" x="360.5" y="542.2852">Vocabulary</text></g><!--class LocalName--><g id="elem_LocalName"><rect codeLine="21" fill="#FFFFFF" height="40.6211" id="LocalName" rx="2.5" ry="2.5" style="stroke:#181818;stroke-width:0.5;" width="80" x="610.5" y="416.06"/><text fill="#000000" font-family="sans-serif" font-size="12" font-style="italic" lengthAdjust="spacing" textLength="63" x="619" y="432.6616">&#171;datatype&#187;</text><text fill="#000000" font-family="sans-serif" font-size="14" lengthAdjust="spacing" textLength="74" x="613.5" y="448.728">LocalName</text></g><!--class BlankNode--><g id="elem_BlankNode"><rect codeLine="23" fill="#D3D3D3" height="26.4883" id="BlankNode" rx="2.5" ry="2.5" style="stroke:#181818;stroke-width:0.5;" width="79" x="611" y="317.33"/><text fill="#000000" font-family="sans-serif" font-size="14" lengthAdjust="spacing" textLength="73" x="614" y="335.8652">BlankNode</text></g><!--class Literal--><g id="elem_Literal"><rect codeLine="26" fill="#D3D3D3" height="50.9766" id="Literal" rx="2.5" ry="2.5" style="stroke:#181818;stroke-width:0.5;" width="140" x="287.5" y="305.08"/><text fill="#000000" font-family="sans-serif" font-size="14" lengthAdjust="spacing" textLength="42" x="336.5" y="323.6152">Literal</text><line style="stroke:#181818;stroke-width:0.5;" x1="288.5" x2="426.5" y1="331.5683" y2="331.5683"/><text fill="#000000" font-family="sans-serif" font-size="14" lengthAdjust="spacing" textLength="128" x="293.5" y="349.1034">lexicalForm: string</text></g><!--class TypedLiteral--><g id="elem_TypedLiteral"><rect codeLine="30" fill="#D3D3D3" height="26.4883" id="TypedLiteral" rx="2.5" ry="2.5" style="stroke:#181818;stroke-width:0.5;" width="90" x="313.5" y="423.13"/><text fill="#000000" font-family="sans-serif" font-size="14" lengthAdjust="spacing" textLength="84" x="316.5" y="441.6652">TypedLiteral</text></g><!--class LanguageTag--><g id="elem_LanguageTag"><rect codeLine="34" fill="#FFFFFF" height="40.6211" id="LanguageTag" rx="2.5" ry="2.5" style="stroke:#181818;stroke-width:0.5;" width="99" x="223" y="516.68"/><text fill="#000000" font-family="sans-serif" font-size="12" font-style="italic" lengthAdjust="spacing" textLength="63" x="241" y="533.2816">&#171;datatype&#187;</text><text fill="#000000" font-family="sans-serif" font-size="14" lengthAdjust="spacing" textLength="93" x="226" y="549.348">LanguageTag</text></g><!--class LangString--><g id="elem_LangString"><rect codeLine="36" fill="#D3D3D3" height="26.4883" id="LangString" rx="2.5" ry="2.5" style="stroke:#181818;stroke-width:0.5;" width="80" x="198.5" y="423.13"/><text fill="#000000" font-family="sans-serif" font-size="14" lengthAdjust="spacing" textLength="74" x="201.5" y="441.6652">LangString</text></g><!--class Subject--><g id="elem_Subject"><rect codeLine="40" fill="#D3D3D3" height="40.6211" id="Subject" rx="2.5" ry="2.5" style="stroke:#181818;stroke-width:0.5;" width="56" x="616.5" y="204.46"/><text fill="#000000" font-family="sans-serif" font-size="12" font-style="italic" lengthAdjust="spacing" textLength="43" x="623" y="221.0616">&#171;union&#187;</text><text fill="#000000" font-family="sans-serif" font-size="14" lengthAdjust="spacing" textLength="50" x="619.5" y="237.128">Subject</text></g><!--class Object--><g id="elem_Object"><rect codeLine="44" fill="#D3D3D3" height="40.6211" id="Object" rx="2.5" ry="2.5" style="stroke:#181818;stroke-width:0.5;" width="50" x="383.5" y="204.46"/><text fill="#000000" font-family="sans-serif" font-size="12" font-style="italic" lengthAdjust="spacing" textLength="43" x="387" y="221.0616">&#171;union&#187;</text><text fill="#000000" font-family="sans-serif" font-size="14" lengthAdjust="spacing" textLength="44" x="386.5" y="237.128">Object</text></g><!--class Statement--><g id="elem_Statement"><rect codeLine="48" fill="#D3D3D3" height="26.4883" id="Statement" rx="2.5" ry="2.5" style="stroke:#181818;stroke-width:0.5;" width="75" x="484" y="117.97"/><text fill="#000000" font-family="sans-serif" font-size="14" lengthAdjust="spacing" textLength="69" x="487" y="136.5052">Statement</text></g><!--class Graph--><g id="elem_Graph"><rect codeLine="53" fill="#D3D3D3" height="26.4883" id="Graph" rx="2.5" ry="2.5" style="stroke:#181818;stroke-width:0.5;" width="48" x="497.5" y="19.24"/><text fill="#000000" font-family="sans-serif" font-size="14" lengthAdjust="spacing" textLength="42" x="500.5" y="37.7752">Graph</text></g><!--class PrefixName--><g id="elem_PrefixName"><rect codeLine="56" fill="#FFFFFF" height="40.6211" id="PrefixName" rx="2.5" ry="2.5" style="stroke:#181818;stroke-width:0.5;" width="85" x="7" y="204.46"/><text fill="#000000" font-family="sans-serif" font-size="12" font-style="italic" lengthAdjust="spacing" textLength="63" x="18" y="221.0616">&#171;datatype&#187;</text><text fill="#000000" font-family="sans-serif" font-size="14" lengthAdjust="spacing" textLength="79" x="10" y="237.128">PrefixName</text></g><!--class NamespaceMap--><g id="elem_NamespaceMap"><rect codeLine="58" fill="#F1F1F1" height="26.4883" id="NamespaceMap" rx="2.5" ry="2.5" style="stroke:#181818;stroke-width:0.5;" width="260" x="15.5" y="117.97"/><text fill="#000000" font-family="sans-serif" font-size="14" lengthAdjust="spacing" textLength="107" x="18.5" y="136.5052">NamespaceMap</text><rect fill="#FFFFFF" height="16.1328" style="stroke:#181818;stroke-width:1.0;stroke-dasharray:2.0,2.0;" width="145" x="133.5" y="114.97"/><text fill="#000000" font-family="sans-serif" font-size="12" font-style="italic" lengthAdjust="spacing" textLength="143" x="134.5" y="127.5716">PrefixName, Namespace</text></g><!--class Dataset--><g id="elem_Dataset"><rect codeLine="63" fill="#F1F1F1" height="50.9766" id="Dataset" rx="2.5" ry="2.5" style="stroke:#181818;stroke-width:0.5;" width="225" x="659" y="7"/><text fill="#000000" font-family="sans-serif" font-size="14" lengthAdjust="spacing" textLength="51" x="746" y="25.5352">Dataset</text><line style="stroke:#181818;stroke-width:0.5;" x1="660" x2="883" y1="33.4883" y2="33.4883"/><text fill="#000000" font-family="sans-serif" font-size="14" lengthAdjust="spacing" textLength="213" x="665" y="51.0234">graphs: Map&lt;Subject?, Graph&gt;</text></g><!--class Quad--><g id="elem_Quad"><rect codeLine="69" fill="#F1F1F1" height="26.4883" id="Quad" rx="2.5" ry="2.5" style="stroke:#181818;stroke-width:0.5;" width="43" x="462" y="317.33"/><text fill="#000000" font-family="sans-serif" font-size="14" lengthAdjust="spacing" textLength="37" x="465" y="335.8652">Quad</text></g><!--link IRI to Resource--><g id="link_IRI_Resource"><path codeLine="10" d="M510.3,437.3 C527.69,437.3 539.5,437.3 539.5,437.3 C539.5,437.3 539.5,542.3 539.5,542.3 C539.5,542.3 586.15,542.3 625.56,542.3 " fill="none" id="IRI-Resource" style="stroke:#181818;stroke-width:1.0;"/><polygon fill="#181818" points="504.3,437.3,513.3,441.3,509.3,437.3,513.3,433.3,504.3,437.3" style="stroke:#181818;stroke-width:1.0;"/><polygon fill="#181818" points="637.56,542.3,631.56,538.3,625.56,542.3,631.56,546.3,637.56,542.3" style="stroke:#181818;stroke-width:1.0;"/><text fill="#000000" font-family="sans-serif" font-size="13" lengthAdjust="spacing" textLength="12" x="511.9388" y="433.6054">id</text></g><!--reverse link IRI to Namespace--><g id="link_IRI_Namespace"><path codeLine="13" d="M420.7,453.3 C340.6,453.3 159.5,453.3 159.5,453.3 C159.5,453.3 159.5,499.89 159.5,523.54 " fill="none" id="IRI-backto-Namespace" style="stroke:#181818;stroke-width:1.0;"/><polygon fill="none" points="438.7,453.3,420.7,447.3,420.7,459.3,438.7,453.3" style="stroke:#181818;stroke-width:1.0;"/></g><!--reverse link Schema to Namespace--><g id="link_Schema_Namespace"><path codeLine="16" d="M503.5,556.39 C503.5,567.44 503.5,575.3 503.5,575.3 C503.5,575.3 145.5,575.3 145.5,575.3 C145.5,575.3 145.5,561.44 145.5,550.39 " fill="none" id="Schema-backto-Namespace" style="stroke:#181818;stroke-width:1.0;"/><polygon fill="#181818" points="503.5,550.39,499.5,559.39,503.5,555.39,507.5,559.39,503.5,550.39" style="stroke:#181818;stroke-width:1.0;"/><text fill="#000000" font-family="sans-serif" font-size="13" lengthAdjust="spacing" textLength="24" x="80.2125" y="570.6732">0..1</text><text fill="#000000" font-family="sans-serif" font-size="13" lengthAdjust="spacing" textLength="84" x="50.2125" y="585.9838">described-by</text></g><!--link Vocabulary to Schema--><g id="link_Vocabulary_Schema"><path codeLine="19" d="M440,537.3 C451.23,537.3 457.17,537.3 467.63,537.3 " fill="none" id="Vocabulary-to-Schema" style="stroke:#181818;stroke-width:1.0;"/><polygon fill="#181818" points="473.63,537.3,464.63,533.3,468.63,537.3,464.63,541.3,473.63,537.3" style="stroke:#181818;stroke-width:1.0;"/><text fill="#000000" font-family="sans-serif" font-size="13" lengthAdjust="spacing" textLength="6" x="455.2953" y="497.3614">*</text><text fill="#000000" font-family="sans-serif" font-size="13" lengthAdjust="spacing" textLength="84" x="416.2953" y="512.672">described-by</text></g><!--link BlankNode to LocalName--><g id="link_BlankNode_LocalName"><path codeLine="24" d="M650.5,355.97 C650.5,374.1 650.5,388.6 650.5,409.82 " fill="none" id="BlankNode-LocalName" style="stroke:#181818;stroke-width:1.0;"/><polygon fill="#181818" points="650.5,343.97,646.5,349.97,650.5,355.97,654.5,349.97,650.5,343.97" style="stroke:#181818;stroke-width:1.0;"/><polygon fill="#181818" points="650.5,415.82,654.5,406.82,650.5,410.82,646.5,406.82,650.5,415.82" style="stroke:#181818;stroke-width:1.0;"/></g><!--reverse link Literal to TypedLiteral--><g id="link_Literal_TypedLiteral"><path codeLine="31" d="M358.5,374.45 C358.5,395.37 358.5,406 358.5,422.71 " fill="none" id="Literal-backto-TypedLiteral" style="stroke:#181818;stroke-width:1.0;"/><polygon fill="none" points="358.5,356.45,352.5,374.45,364.5,374.45,358.5,356.45" style="stroke:#181818;stroke-width:1.0;"/></g><!--link TypedLiteral to IRI--><g id="link_TypedLiteral_IRI"><path codeLine="32" d="M415.81,437.3 C427.48,437.3 421.81,437.3 432.7,437.3 " fill="none" id="TypedLiteral-IRI" style="stroke:#181818;stroke-width:1.0;"/><polygon fill="#181818" points="403.81,437.3,409.81,441.3,415.81,437.3,409.81,433.3,403.81,437.3" style="stroke:#181818;stroke-width:1.0;"/><polygon fill="#181818" points="438.7,437.3,429.7,433.3,433.7,437.3,429.7,441.3,438.7,437.3" style="stroke:#181818;stroke-width:1.0;"/><text fill="#000000" font-family="sans-serif" font-size="13" lengthAdjust="spacing" textLength="54" x="411.7609" y="465.9159">datatype</text><text fill="#000000" font-family="sans-serif" font-size="13" lengthAdjust="spacing" textLength="24" x="426.7609" y="481.2265">0..1</text></g><!--reverse link Literal to LangString--><g id="link_Literal_LangString"><path codeLine="37" d="M300.5,374.41 C300.5,405.99 300.5,437.3 300.5,437.3 C300.5,437.3 290.66,437.3 278.82,437.3 " fill="none" id="Literal-backto-LangString" style="stroke:#181818;stroke-width:1.0;"/><polygon fill="none" points="300.5,356.41,294.5,374.41,306.5,374.41,300.5,356.41" style="stroke:#181818;stroke-width:1.0;"/></g><!--link LangString to LanguageTag--><g id="link_LangString_LanguageTag"><path codeLine="38" d="M250.75,461.94 C250.75,479 250.75,490.45 250.75,510.32 " fill="none" id="LangString-LanguageTag" style="stroke:#181818;stroke-width:1.0;"/><polygon fill="#181818" points="250.75,449.94,246.75,455.94,250.75,461.94,254.75,455.94,250.75,449.94" style="stroke:#181818;stroke-width:1.0;"/><polygon fill="#181818" points="250.75,516.32,254.75,507.32,250.75,511.32,246.75,507.32,250.75,516.32" style="stroke:#181818;stroke-width:1.0;"/><text fill="#000000" font-family="sans-serif" font-size="13" lengthAdjust="spacing" textLength="24" x="217.2578" y="506.0091">0..1</text></g><!--link Subject to Resource--><g id="link_Subject_Resource"><path codeLine="41" d="M684.96,225.3 C696.87,225.3 696,225.3 696,225.3 C696,225.3 696,457.94 696,517.6 " fill="none" id="Subject-Resource" style="stroke:#181818;stroke-width:1.0;"/><polygon fill="none" points="672.96,225.3,678.96,229.3,684.96,225.3,678.96,221.3,672.96,225.3" style="stroke:#181818;stroke-width:1.0;"/><polygon fill="#181818" points="696,523.6,700,514.6,696,518.6,692,514.6,696,523.6" style="stroke:#181818;stroke-width:1.0;"/></g><!--link Subject to BlankNode--><g id="link_Subject_BlankNode"><path codeLine="42" d="M644.5,257.42 C644.5,278.59 644.5,292.9 644.5,311.02 " fill="none" id="Subject-BlankNode" style="stroke:#181818;stroke-width:1.0;"/><polygon fill="none" points="644.5,245.42,640.5,251.42,644.5,257.42,648.5,251.42,644.5,245.42" style="stroke:#181818;stroke-width:1.0;"/><polygon fill="#181818" points="644.5,317.02,648.5,308.02,644.5,312.02,640.5,308.02,644.5,317.02" style="stroke:#181818;stroke-width:1.0;"/></g><!--link Object to Literal--><g id="link_Object_Literal"><path codeLine="45" d="M405.5,257.42 C405.5,274.38 405.5,280.49 405.5,298.73 " fill="none" id="Object-Literal" style="stroke:#181818;stroke-width:1.0;"/><polygon fill="#181818" points="405.5,245.42,401.5,251.42,405.5,257.42,409.5,251.42,405.5,245.42" style="stroke:#181818;stroke-width:1.0;"/><polygon fill="#181818" points="405.5,304.73,409.5,295.73,405.5,299.73,401.5,295.73,405.5,304.73" style="stroke:#181818;stroke-width:1.0;"/></g><!--link Object to Subject--><g id="link_Object_Subject"><path codeLine="46" d="M433.76,235.3 C478.11,235.3 551.69,235.3 598.14,235.3 " fill="none" id="Object-to-Subject" style="stroke:#181818;stroke-width:1.0;"/><polygon fill="none" points="616.14,235.3,598.14,229.3,598.14,241.3,616.14,235.3" style="stroke:#181818;stroke-width:1.0;"/></g><!--link Statement to Subject--><g id="link_Statement_Subject"><path codeLine="49" d="M552.5,156.73 C552.5,180.5 552.5,215.3 552.5,215.3 C552.5,215.3 583.11,215.3 610.15,215.3 " fill="none" id="Statement-Subject" style="stroke:#181818;stroke-width:1.0;"/><polygon fill="none" points="552.5,144.73,548.5,150.73,552.5,156.73,556.5,150.73,552.5,144.73" style="stroke:#181818;stroke-width:1.0;"/><polygon fill="#181818" points="616.15,215.3,607.15,211.3,611.15,215.3,607.15,219.3,616.15,215.3" style="stroke:#181818;stroke-width:1.0;"/></g><!--link Statement to Resource--><g id="link_Statement_Resource"><path codeLine="50" d="M546,156.6 C546,226.36 546,533.3 546,533.3 C546,533.3 594.16,533.3 631.6,533.3 " fill="none" id="Statement-Resource" style="stroke:#181818;stroke-width:1.0;"/><polygon fill="none" points="546,144.6,542,150.6,546,156.6,550,150.6,546,144.6" style="stroke:#181818;stroke-width:1.0;"/><polygon fill="#181818" points="637.6,533.3,628.6,529.3,632.6,533.3,628.6,537.3,637.6,533.3" style="stroke:#181818;stroke-width:1.0;"/><text fill="#000000" font-family="sans-serif" font-size="13" lengthAdjust="spacing" textLength="58" x="571.8122" y="529.523">predicate</text></g><!--link Statement to Object--><g id="link_Statement_Object"><path codeLine="51" d="M491,156.7 C491,182.71 491,225.3 491,225.3 C491,225.3 463.96,225.3 439.7,225.3 " fill="none" id="Statement-Object" style="stroke:#181818;stroke-width:1.0;"/><polygon fill="none" points="491,144.7,487,150.7,491,156.7,495,150.7,491,144.7" style="stroke:#181818;stroke-width:1.0;"/><polygon fill="#181818" points="433.7,225.3,442.7,229.3,438.7,225.3,442.7,221.3,433.7,225.3" style="stroke:#181818;stroke-width:1.0;"/></g><!--link Graph to Statement--><g id="link_Graph_Statement"><path codeLine="54" d="M521.5,58.21 C521.5,77.08 521.5,92.8 521.5,111.61 " fill="none" id="Graph-Statement" style="stroke:#181818;stroke-width:1.0;"/><polygon fill="#181818" points="521.5,46.21,517.5,52.21,521.5,58.21,525.5,52.21,521.5,46.21" style="stroke:#181818;stroke-width:1.0;"/><polygon fill="#181818" points="521.5,117.61,525.5,108.61,521.5,112.61,517.5,108.61,521.5,117.61" style="stroke:#181818;stroke-width:1.0;"/><text fill="#000000" font-family="sans-serif" font-size="13" lengthAdjust="spacing" textLength="27" x="490.5344" y="91.8671">{set}</text><text fill="#000000" font-family="sans-serif" font-size="13" lengthAdjust="spacing" textLength="6" x="501.0344" y="107.1777">*</text></g><!--link Graph to NamespaceMap--><g id="link_Graph_NamespaceMap"><path codeLine="59" d="M485.12,33.3 C401.8,33.3 145.5,33.3 145.5,33.3 C145.5,33.3 145.5,84.7 145.5,111.6 " fill="none" id="Graph-NamespaceMap" style="stroke:#181818;stroke-width:1.0;"/><polygon fill="none" points="497.12,33.3,491.12,29.3,485.12,33.3,491.12,37.3,497.12,33.3" style="stroke:#181818;stroke-width:1.0;"/><polygon fill="#181818" points="145.5,117.6,149.5,108.6,145.5,112.6,141.5,108.6,145.5,117.6" style="stroke:#181818;stroke-width:1.0;"/><text fill="#000000" font-family="sans-serif" font-size="13" lengthAdjust="spacing" textLength="27" x="114.5344" y="91.8542">map</text><text fill="#000000" font-family="sans-serif" font-size="13" lengthAdjust="spacing" textLength="24" x="116.0344" y="107.1647">0..1</text></g><!--link NamespaceMap to PrefixName--><g id="link_NamespaceMap_PrefixName"><path codeLine="60" d="M53.75,144.62 C53.75,160.18 53.75,180.03 53.75,198.15 " fill="none" id="NamespaceMap-to-PrefixName" style="stroke:#181818;stroke-width:1.0;stroke-dasharray:7.0,7.0;"/><polygon fill="#181818" points="53.75,204.15,57.75,195.15,53.75,199.15,49.75,195.15,53.75,204.15" style="stroke:#181818;stroke-width:1.0;"/></g><!--link NamespaceMap to Namespace--><g id="link_NamespaceMap_Namespace"><path codeLine="61" d="M131.5,144.72 C131.5,206.46 131.5,455.59 131.5,517.44 " fill="none" id="NamespaceMap-to-Namespace" style="stroke:#181818;stroke-width:1.0;stroke-dasharray:7.0,7.0;"/><polygon fill="#181818" points="131.5,523.44,135.5,514.44,131.5,518.44,127.5,514.44,131.5,523.44" style="stroke:#181818;stroke-width:1.0;"/></g><!--reverse link Graph to Dataset--><g id="link_Graph_Dataset"><path codeLine="66" d="M551.93,33.3 C578.34,33.3 616.35,33.3 658.52,33.3 " fill="none" id="Graph-backto-Dataset" style="stroke:#181818;stroke-width:1.0;stroke-dasharray:7.0,7.0;"/><polygon fill="#181818" points="545.93,33.3,554.93,37.3,550.93,33.3,554.93,29.3,545.93,33.3" style="stroke:#181818;stroke-width:1.0;"/></g><!--link Dataset to Resource--><g id="link_Dataset_Resource"><path codeLine="67" d="M701.5,58.2 C701.5,149.36 701.5,449.31 701.5,517.46 " fill="none" id="Dataset-to-Resource" style="stroke:#181818;stroke-width:1.0;"/><polygon fill="#181818" points="701.5,523.46,705.5,514.46,701.5,518.46,697.5,514.46,701.5,523.46" style="stroke:#181818;stroke-width:1.0;"/><text fill="#000000" font-family="sans-serif" font-size="13" lengthAdjust="spacing" textLength="34" x="671.025" y="497.7377">name</text><text fill="#000000" font-family="sans-serif" font-size="13" lengthAdjust="spacing" textLength="24" x="676.025" y="513.0482">0..1</text></g><!--reverse link Statement to Quad--><g id="link_Statement_Quad"><path codeLine="70" d="M498,162.92 C498,199.43 498,280.72 498,317.04 " fill="none" id="Statement-backto-Quad" style="stroke:#181818;stroke-width:1.0;"/><polygon fill="none" points="498,144.92,492,162.92,504,162.92,498,144.92" style="stroke:#181818;stroke-width:1.0;"/></g><!--link Quad to IRI--><g id="link_Quad_IRI"><path codeLine="71" d="M483,355.97 C483,374.1 483,388.6 483,409.82 " fill="none" id="Quad-IRI" style="stroke:#181818;stroke-width:1.0;"/><polygon fill="none" points="483,343.97,479,349.97,483,355.97,487,349.97,483,343.97" style="stroke:#181818;stroke-width:1.0;"/><polygon fill="#181818" points="483,415.82,487,406.82,483,410.82,479,406.82,483,415.82" style="stroke:#181818;stroke-width:1.0;"/><text fill="#000000" font-family="sans-serif" font-size="13" lengthAdjust="spacing" textLength="36" x="445.0906" y="405.1941">graph</text></g><!--SRC=[ZLFBRfmm5Dtp5HRPeO3QROI855Mj8asJDXDbDPiBlW4tO91jb8pI-VVOO1j3egQpONmVvvpxaa-C3o2W8otZg8u3abwefe-YXb4as0tgI3hiIXHoDbLCL2tAAAfQa99StrsJFAUWm2GN1JbxRfX2ydfo4NSe-r5KICvsh6xK3m57u_Nc91s7j20nex51SsatqA4Se9gWbeS9_blCWL1A9Q1IP5yrs849jF_obCHVikphWLEKbM0bqhGynWkeOtdeAoZ75iIaANWPHSasVKPtkJiTtHh4JnfmrG9_kkdfjWEBFKbf_ymrfOVq71fAGBlAZ8Z-jVZ2TEptNdGNHBU1yJhoZFTQ2VqezHIjNBQPzhds9QO3hgm3DzrSpMS7l1wXndkeFwdVHEudXHijWMEZ9F3utiIpX83N4Up7yW_gDSZpaREU6mqh7kVlKs7C6iijN-2oB7ue3lpstzZMlKpGLc3jfYZBuTNgJc67N6rLUhiNup93boiX7WHIlG8Auw2SznYtAt9DDZGRujcMf0RqLQ8w7NWIBp9TwY-1Z-pbF_OzzbVs4uPyIJjVpg-82GGdhkCM8Vqaf8F1BLqO5groCbDZLWJIFlQ_E_jlMhwkrDvIRNZb1J5oRSilp-TM5VgeN72MjVYeCeqtkRpTBoZND4wq7ubb_3q2DJLEtzG0JQlXcppPW-bEcgQ3UmC0]--></g></svg>