<?xml version="1.0" encoding="us-ascii" standalone="no"?><svg xmlns="http://www.w3.org/2000/svg" xmlns:xlink="http://www.w3.org/1999/xlink" contentStyleType="text/css" height="257px" preserveAspectRatio="none" style="width:628px;height:257px;background:#FFFFFF;" version="1.1" viewBox="0 0 628 257" width="628px" zoomAndPan="magnify"><defs/><g><!--class IRI--><g id="elem_IRI"><rect codeLine="7" fill="#FFFFFF" height="40.6211" id="IRI" rx="2.5" ry="2.5" style="stroke:#181818;stroke-width:0.5;" width="65" x="7" y="191.93"/><text fill="#000000" font-family="sans-serif" font-size="12" font-style="italic" lengthAdjust="spacing" textLength="63" x="8" y="208.5316">&#171;datatype&#187;</text><text fill="#000000" font-family="sans-serif" font-size="14" lengthAdjust="spacing" textLength="17" x="31" y="224.598">IRI</text></g><!--class Namespace--><g id="elem_Namespace"><rect codeLine="9" fill="#F1F1F1" height="26.4883" id="Namespace" rx="2.5" ry="2.5" style="stroke:#181818;stroke-width:0.5;" width="84" x="107.5" y="199"/><text fill="#000000" font-family="sans-serif" font-size="14" lengthAdjust="spacing" textLength="78" x="110.5" y="217.5352">Namespace</text></g><!--class LocalName--><g id="elem_LocalName"><rect codeLine="12" fill="#FFFFFF" height="40.6211" id="LocalName" rx="2.5" ry="2.5" style="stroke:#181818;stroke-width:0.5;" width="80" x="226.5" y="191.93"/><text fill="#000000" font-family="sans-serif" font-size="12" font-style="italic" lengthAdjust="spacing" textLength="63" x="235" y="208.5316">&#171;datatype&#187;</text><text fill="#000000" font-family="sans-serif" font-size="14" lengthAdjust="spacing" textLength="74" x="229.5" y="224.598">LocalName</text></g><!--class PrefixName--><g id="elem_PrefixName"><rect codeLine="14" fill="#FFFFFF" height="40.6211" id="PrefixName" rx="2.5" ry="2.5" style="stroke:#181818;stroke-width:0.5;" width="85" x="342" y="191.93"/><text fill="#000000" font-family="sans-serif" font-size="12" font-style="italic" lengthAdjust="spacing" textLength="63" x="353" y="208.5316">&#171;datatype&#187;</text><text fill="#000000" font-family="sans-serif" font-size="14" lengthAdjust="spacing" textLength="79" x="345" y="224.598">PrefixName</text></g><!--class PrefixedName--><g id="elem_PrefixedName"><rect codeLine="16" fill="#FFFFFF" height="40.6211" id="PrefixedName" rx="2.5" ry="2.5" style="stroke:#181818;stroke-width:0.5;" width="102" x="330.5" y="91.31"/><text fill="#000000" font-family="sans-serif" font-size="12" font-style="italic" lengthAdjust="spacing" textLength="63" x="350" y="107.9116">&#171;datatype&#187;</text><text fill="#000000" font-family="sans-serif" font-size="14" lengthAdjust="spacing" textLength="96" x="333.5" y="123.978">PrefixedName</text></g><g id="elem_GMN11"><path d="M325.5,6 L325.5,31.3105 A0,0 0 0 0 325.5,31.3105 L377.5,31.3105 L381.5,90.94 L385.5,31.3105 L437.5,31.3105 A0,0 0 0 0 437.5,31.3105 L437.5,16 L427.5,6 L325.5,6 A0,0 0 0 0 325.5,6 " fill="#FEFFDD" style="stroke:#181818;stroke-width:0.5;"/><path d="M427.5,6 L427.5,16 L437.5,16 L427.5,6 " fill="#FEFFDD" style="stroke:#181818;stroke-width:0.5;"/><text fill="#000000" font-family="sans-serif" font-size="13" lengthAdjust="spacing" textLength="91" x="331.5" y="23.5684">("ex:", "Name")</text></g><!--class NamespacedName--><g id="elem_NamespacedName"><rect codeLine="24" fill="#FFFFFF" height="40.6211" id="NamespacedName" rx="2.5" ry="2.5" style="stroke:#181818;stroke-width:0.5;" width="132" x="86.5" y="91.31"/><text fill="#000000" font-family="sans-serif" font-size="12" font-style="italic" lengthAdjust="spacing" textLength="63" x="121" y="107.9116">&#171;datatype&#187;</text><text fill="#000000" font-family="sans-serif" font-size="14" lengthAdjust="spacing" textLength="126" x="89.5" y="123.978">NamespacedName</text></g><g id="elem_GMN17"><path d="M20.5,6 L20.5,31.3105 A0,0 0 0 0 20.5,31.3105 L148.5,31.3105 L152.5,90.94 L156.5,31.3105 L284.5,31.3105 A0,0 0 0 0 284.5,31.3105 L284.5,16 L274.5,6 L20.5,6 A0,0 0 0 0 20.5,6 " fill="#FEFFDD" style="stroke:#181818;stroke-width:0.5;"/><path d="M274.5,6 L274.5,16 L284.5,16 L274.5,6 " fill="#FEFFDD" style="stroke:#181818;stroke-width:0.5;"/><text fill="#000000" font-family="sans-serif" font-size="13" lengthAdjust="spacing" textLength="243" x="26.5" y="23.5684">(&lt;https://example/org/ns/&gt;, "Name")</text></g><!--class Binding--><g id="elem_Binding"><rect codeLine="32" fill="#F1F1F1" height="26.4883" id="Binding" rx="2.5" ry="2.5" style="stroke:#181818;stroke-width:0.5;" width="58" x="462.5" y="199"/><text fill="#000000" font-family="sans-serif" font-size="14" lengthAdjust="spacing" textLength="52" x="465.5" y="217.5352">Binding</text></g><!--class Mapping--><g id="elem_Mapping"><rect codeLine="36" fill="#F1F1F1" height="26.4883" id="Mapping" rx="2.5" ry="2.5" style="stroke:#181818;stroke-width:0.5;" width="66" x="555.5" y="199"/><text fill="#000000" font-family="sans-serif" font-size="14" lengthAdjust="spacing" textLength="60" x="558.5" y="217.5352">Mapping</text></g><!--reverse link IRI to Namespace--><g id="link_IRI_Namespace"><path codeLine="10" d="M90.21,212.55 C101.23,212.55 95.68,212.55 107.33,212.55 " fill="none" id="IRI-backto-Namespace" style="stroke:#181818;stroke-width:1.0;"/><polygon fill="none" points="72.21,212.55,90.21,218.55,90.21,206.55,72.21,212.55" style="stroke:#181818;stroke-width:1.0;"/></g><!--link PrefixedName to PrefixName--><g id="link_PrefixedName_PrefixName"><path codeLine="17" d="M384.5,143.98 C384.5,161.32 384.5,168.13 384.5,185.56 " fill="none" id="PrefixedName-PrefixName" style="stroke:#181818;stroke-width:1.0;"/><polygon fill="#181818" points="384.5,131.98,380.5,137.98,384.5,143.98,388.5,137.98,384.5,131.98" style="stroke:#181818;stroke-width:1.0;"/><polygon fill="#181818" points="384.5,191.56,388.5,182.56,384.5,186.56,380.5,182.56,384.5,191.56" style="stroke:#181818;stroke-width:1.0;"/></g><!--link PrefixedName to LocalName--><g id="link_PrefixedName_LocalName"><path codeLine="18" d="M336.25,144.04 C336.25,173.54 336.25,212.55 336.25,212.55 C336.25,212.55 328.17,212.55 312.67,212.55 " fill="none" id="PrefixedName-LocalName" style="stroke:#181818;stroke-width:1.0;"/><polygon fill="#181818" points="336.25,132.04,332.25,138.04,336.25,144.04,340.25,138.04,336.25,132.04" style="stroke:#181818;stroke-width:1.0;"/><polygon fill="#181818" points="306.67,212.55,315.67,216.55,311.67,212.55,315.67,208.55,306.67,212.55" style="stroke:#181818;stroke-width:1.0;"/></g><!--link NamespacedName to Namespace--><g id="link_NamespacedName_Namespace"><path codeLine="25" d="M149.5,143.98 C149.5,163.85 149.5,175.52 149.5,192.67 " fill="none" id="NamespacedName-Namespace" style="stroke:#181818;stroke-width:1.0;"/><polygon fill="#181818" points="149.5,131.98,145.5,137.98,149.5,143.98,153.5,137.98,149.5,131.98" style="stroke:#181818;stroke-width:1.0;"/><polygon fill="#181818" points="149.5,198.67,153.5,189.67,149.5,193.67,145.5,189.67,149.5,198.67" style="stroke:#181818;stroke-width:1.0;"/></g><!--link NamespacedName to LocalName--><g id="link_NamespacedName_LocalName"><path codeLine="26" d="M205,144.37 C205,169.22 205,195.55 205,195.55 C205,195.55 208.57,195.55 220.16,195.55 " fill="none" id="NamespacedName-LocalName" style="stroke:#181818;stroke-width:1.0;"/><polygon fill="#181818" points="205,132.37,201,138.37,205,144.37,209,138.37,205,132.37" style="stroke:#181818;stroke-width:1.0;"/><polygon fill="#181818" points="226.16,195.55,217.16,191.55,221.16,195.55,217.16,199.55,226.16,195.55" style="stroke:#181818;stroke-width:1.0;"/></g><!--link Namespace to Binding--><g id="link_Namespace_Binding"><path codeLine="33" d="M149.5,231.64 C149.5,242.69 149.5,250.55 149.5,250.55 C149.5,250.55 491.5,250.55 491.5,250.55 C491.5,250.55 491.5,248.69 491.5,237.64 " fill="none" id="Namespace-Binding" style="stroke:#181818;stroke-width:1.0;"/><polygon fill="#181818" points="149.5,225.64,145.5,234.64,149.5,230.64,153.5,234.64,149.5,225.64" style="stroke:#181818;stroke-width:1.0;"/><polygon fill="none" points="491.5,225.64,487.5,231.64,491.5,237.64,495.5,231.64,491.5,225.64" style="stroke:#181818;stroke-width:1.0;"/><text fill="#000000" font-family="sans-serif" font-size="13" lengthAdjust="spacing" textLength="33" x="110.4156" y="245.971">value</text></g><!--link PrefixName to Binding--><g id="link_PrefixName_Binding"><path codeLine="34" d="M433.4,212.55 C445.03,212.55 439.36,212.55 450.06,212.55 " fill="none" id="PrefixName-Binding" style="stroke:#181818;stroke-width:1.0;"/><polygon fill="#181818" points="427.4,212.55,436.4,216.55,432.4,212.55,436.4,208.55,427.4,212.55" style="stroke:#181818;stroke-width:1.0;"/><polygon fill="none" points="462.06,212.55,456.06,208.55,450.06,212.55,456.06,216.55,462.06,212.55" style="stroke:#181818;stroke-width:1.0;"/><text fill="#000000" font-family="sans-serif" font-size="13" lengthAdjust="spacing" textLength="34" x="420.5366" y="206.289">name</text></g><!--link Binding to Mapping--><g id="link_Binding_Mapping"><path codeLine="37" d="M526.87,212.55 C537.68,212.55 532.01,212.55 543.16,212.55 " fill="none" id="Binding-Mapping" style="stroke:#181818;stroke-width:1.0;"/><polygon fill="#181818" points="520.87,212.55,529.87,216.55,525.87,212.55,529.87,208.55,520.87,212.55" style="stroke:#181818;stroke-width:1.0;"/><polygon fill="#181818" points="555.16,212.55,549.16,208.55,543.16,212.55,549.16,216.55,555.16,212.55" style="stroke:#181818;stroke-width:1.0;"/><text fill="#000000" font-family="sans-serif" font-size="13" lengthAdjust="spacing" textLength="6" x="528.3556" y="208.4906">*</text></g><!--SRC=[ZP3FJiCm38VlUGehNCP4rVjKvG2dIO0GRs0QTut8FoKPwmIyEsIZfHtgsCrsllpyoV5LMOy13MXbAUqzWGkfTOorIXAGyMaFXimBXNWSrIhKcY9ZjSOOOVsyXggIc31_5WAkTgrA1E-VFV68XgB7-Z3xRGfDJIe-H4xeqNjNeyx8Fv5FWHhLNGoIF8TEc6KXtSuMOhHY1XXS6RFkEoav3wwPR6GBJjsAtm3F7RzcP2La-CzfpWgUK8F1C9ybPXodE5jKRKe-higIEZHUK-d2fhIn5FFcjyfAPJTPhozTiVK2-1lgBV6HtCcxpO7ZyxAxG-83Ul-Js9VBuuybxzTz0G00]--></g></svg>