<?xml version="1.0" encoding="us-ascii" standalone="no"?><svg xmlns="http://www.w3.org/2000/svg" xmlns:xlink="http://www.w3.org/1999/xlink" contentStyleType="text/css" height="238px" preserveAspectRatio="none" style="width:733px;height:238px;background:#FFFFFF;" version="1.1" viewBox="0 0 733 238" width="733px" zoomAndPan="magnify"><defs/><g><!--class IRI--><g id="elem_IRI"><rect codeLine="7" fill="#FFFFFF" height="40.6211" id="IRI" rx="2.5" ry="2.5" style="stroke:#181818;stroke-width:0.5;" width="65" x="7" y="191.93"/><text fill="#000000" font-family="sans-serif" font-size="12" font-style="italic" lengthAdjust="spacing" textLength="63" x="8" y="208.5316">&#171;datatype&#187;</text><text fill="#000000" font-family="sans-serif" font-size="14" lengthAdjust="spacing" textLength="17" x="31" y="224.598">IRI</text></g><!--class Namespace--><g id="elem_Namespace"><rect codeLine="9" fill="#F1F1F1" height="26.4883" id="Namespace" rx="2.5" ry="2.5" style="stroke:#181818;stroke-width:0.5;" width="84" x="107.5" y="199"/><text fill="#000000" font-family="sans-serif" font-size="14" lengthAdjust="spacing" textLength="78" x="110.5" y="217.5352">Namespace</text></g><!--class LocalName--><g id="elem_LocalName"><rect codeLine="12" fill="#FFFFFF" height="40.6211" id="LocalName" rx="2.5" ry="2.5" style="stroke:#181818;stroke-width:0.5;" width="80" x="525.5" y="191.93"/><text fill="#000000" font-family="sans-serif" font-size="12" font-style="italic" lengthAdjust="spacing" textLength="63" x="534" y="208.5316">&#171;datatype&#187;</text><text fill="#000000" font-family="sans-serif" font-size="14" lengthAdjust="spacing" textLength="74" x="528.5" y="224.598">LocalName</text></g><!--class PrefixName--><g id="elem_PrefixName"><rect codeLine="14" fill="#FFFFFF" height="40.6211" id="PrefixName" rx="2.5" ry="2.5" style="stroke:#181818;stroke-width:0.5;" width="85" x="641" y="191.93"/><text fill="#000000" font-family="sans-serif" font-size="12" font-style="italic" lengthAdjust="spacing" textLength="63" x="652" y="208.5316">&#171;datatype&#187;</text><text fill="#000000" font-family="sans-serif" font-size="14" lengthAdjust="spacing" textLength="79" x="644" y="224.598">PrefixName</text></g><!--class PrefixedName--><g id="elem_PrefixedName"><rect codeLine="16" fill="#FFFFFF" height="40.6211" id="PrefixedName" rx="2.5" ry="2.5" style="stroke:#181818;stroke-width:0.5;" width="102" x="573.5" y="91.31"/><text fill="#000000" font-family="sans-serif" font-size="12" font-style="italic" lengthAdjust="spacing" textLength="63" x="593" y="107.9116">&#171;datatype&#187;</text><text fill="#000000" font-family="sans-serif" font-size="14" lengthAdjust="spacing" textLength="96" x="576.5" y="123.978">PrefixedName</text></g><g id="elem_GMN11"><path d="M568.5,6 L568.5,31.3105 A0,0 0 0 0 568.5,31.3105 L620.5,31.3105 L624.5,90.94 L628.5,31.3105 L680.5,31.3105 A0,0 0 0 0 680.5,31.3105 L680.5,16 L670.5,6 L568.5,6 A0,0 0 0 0 568.5,6 " fill="#FEFFDD" style="stroke:#181818;stroke-width:0.5;"/><path d="M670.5,6 L670.5,16 L680.5,16 L670.5,6 " fill="#FEFFDD" style="stroke:#181818;stroke-width:0.5;"/><text fill="#000000" font-family="sans-serif" font-size="13" lengthAdjust="spacing" textLength="91" x="574.5" y="23.5684">("ex:", "Name")</text></g><!--class NamespacedName--><g id="elem_NamespacedName"><rect codeLine="24" fill="#FFFFFF" height="40.6211" id="NamespacedName" rx="2.5" ry="2.5" style="stroke:#181818;stroke-width:0.5;" width="132" x="292.5" y="91.31"/><text fill="#000000" font-family="sans-serif" font-size="12" font-style="italic" lengthAdjust="spacing" textLength="63" x="327" y="107.9116">&#171;datatype&#187;</text><text fill="#000000" font-family="sans-serif" font-size="14" lengthAdjust="spacing" textLength="126" x="295.5" y="123.978">NamespacedName</text></g><g id="elem_GMN17"><path d="M226.5,199.58 L226.5,224.8905 A0,0 0 0 0 226.5,224.8905 L490.5,224.8905 A0,0 0 0 0 490.5,224.8905 L490.5,209.58 L480.5,199.58 L362.5,199.58 L358.5,131.98 L354.5,199.58 L226.5,199.58 A0,0 0 0 0 226.5,199.58 " fill="#FEFFDD" style="stroke:#181818;stroke-width:0.5;"/><path d="M480.5,199.58 L480.5,209.58 L490.5,209.58 L480.5,199.58 " fill="#FEFFDD" style="stroke:#181818;stroke-width:0.5;"/><text fill="#000000" font-family="sans-serif" font-size="13" lengthAdjust="spacing" textLength="243" x="232.5" y="217.1484">(&lt;https://example/org/ns/&gt;, "Name")</text></g><!--reverse link IRI to Namespace--><g id="link_IRI_Namespace"><path codeLine="10" d="M90.21,212.55 C101.23,212.55 95.68,212.55 107.33,212.55 " fill="none" id="IRI-backto-Namespace" style="stroke:#181818;stroke-width:1.0;"/><polygon fill="none" points="72.21,212.55,90.21,218.55,90.21,206.55,72.21,212.55" style="stroke:#181818;stroke-width:1.0;"/></g><!--link PrefixedName to PrefixName--><g id="link_PrefixedName_PrefixName"><path codeLine="17" d="M658.25,143.98 C658.25,161.32 658.25,168.13 658.25,185.56 " fill="none" id="PrefixedName-PrefixName" style="stroke:#181818;stroke-width:1.0;"/><polygon fill="#181818" points="658.25,131.98,654.25,137.98,658.25,143.98,662.25,137.98,658.25,131.98" style="stroke:#181818;stroke-width:1.0;"/><polygon fill="#181818" points="658.25,191.56,662.25,182.56,658.25,186.56,654.25,182.56,658.25,191.56" style="stroke:#181818;stroke-width:1.0;"/></g><!--link PrefixedName to LocalName--><g id="link_PrefixedName_LocalName"><path codeLine="18" d="M589.5,143.98 C589.5,161.32 589.5,168.13 589.5,185.56 " fill="none" id="PrefixedName-LocalName" style="stroke:#181818;stroke-width:1.0;"/><polygon fill="#181818" points="589.5,131.98,585.5,137.98,589.5,143.98,593.5,137.98,589.5,131.98" style="stroke:#181818;stroke-width:1.0;"/><polygon fill="#181818" points="589.5,191.56,593.5,182.56,589.5,186.56,585.5,182.56,589.5,191.56" style="stroke:#181818;stroke-width:1.0;"/></g><!--link NamespacedName to Namespace--><g id="link_NamespacedName_Namespace"><path codeLine="25" d="M280.08,112.55 C218.89,112.55 149.5,112.55 149.5,112.55 C149.5,112.55 149.5,165.58 149.5,192.79 " fill="none" id="NamespacedName-Namespace" style="stroke:#181818;stroke-width:1.0;"/><polygon fill="#181818" points="292.08,112.55,286.08,108.55,280.08,112.55,286.08,116.55,292.08,112.55" style="stroke:#181818;stroke-width:1.0;"/><polygon fill="#181818" points="149.5,198.79,153.5,189.79,149.5,193.79,145.5,189.79,149.5,198.79" style="stroke:#181818;stroke-width:1.0;"/></g><!--link NamespacedName to LocalName--><g id="link_NamespacedName_LocalName"><path codeLine="26" d="M436.96,112.55 C491.23,112.55 547,112.55 547,112.55 C547,112.55 547,156.38 547,185.58 " fill="none" id="NamespacedName-LocalName" style="stroke:#181818;stroke-width:1.0;"/><polygon fill="#181818" points="424.96,112.55,430.96,116.55,436.96,112.55,430.96,108.55,424.96,112.55" style="stroke:#181818;stroke-width:1.0;"/><polygon fill="#181818" points="547,191.58,551,182.58,547,186.58,543,182.58,547,191.58" style="stroke:#181818;stroke-width:1.0;"/></g><!--SRC=[ZP3TIWCn44RlynJ3UjEAI-xBalk25F4DqcJM3Kqo8Hde5lNTDKfNjtzwEHzdlZbCsRcOTDO1l8l8XuH0cGSIOd0M0KFY0mGCMypbEp8k6uz52EDrAR1-NaFNMSswBYi5T_l1CSBh-v7Ow80bQVEL_GojnvxRDrKRZkWZ6UqhyaVbKyRUZVy6qTv2PynzQsaVM_Nhn1LWSXKYqcSJKmBgPnV5ei5nrJn0KwTcAJ1QgF3PQsuAdb2JmPHV9KuTjyHCeMhEDyIY6vXJMKc9emx9ewJy8cEHweBy1m00]--></g></svg>