<?xml version="1.0" encoding="us-ascii" standalone="no"?><svg xmlns="http://www.w3.org/2000/svg" xmlns:xlink="http://www.w3.org/1999/xlink" contentStyleType="text/css" height="519px" preserveAspectRatio="none" style="width:710px;height:519px;background:#FFFFFF;" version="1.1" viewBox="0 0 710 519" width="710px" zoomAndPan="magnify"><defs/><g><!--cluster rdf--><g id="cluster_rdf"><path d="M8.5,6 L30.5,6 A3.75,3.75 0 0 1 33,8.5 L40,28.4883 L700.5,28.4883 A2.5,2.5 0 0 1 703,30.9883 L703,510.36 A2.5,2.5 0 0 1 700.5,512.86 L8.5,512.86 A2.5,2.5 0 0 1 6,510.36 L6,8.5 A2.5,2.5 0 0 1 8.5,6 " fill="none" style="stroke:#000000;stroke-width:1.5;"/><line style="stroke:#000000;stroke-width:1.5;" x1="6" x2="40" y1="28.4883" y2="28.4883"/><text fill="#000000" font-family="sans-serif" font-size="14" font-weight="bold" lengthAdjust="spacing" textLength="21" x="10" y="21.5352">rdf</text><text fill="#000000" font-family="sans-serif" font-size="14" font-style="italic" lengthAdjust="spacing" textLength="66" x="325.5" y="44.0234">&#171;module&#187;</text></g><!--cluster core--><g id="cluster_core"><path d="M32.5,65 L63.5,65 A3.75,3.75 0 0 1 66,67.5 L73,87.4883 L676.5,87.4883 A2.5,2.5 0 0 1 679,89.9883 L679,486.36 A2.5,2.5 0 0 1 676.5,488.86 L32.5,488.86 A2.5,2.5 0 0 1 30,486.36 L30,67.5 A2.5,2.5 0 0 1 32.5,65 " fill="none" style="stroke:#000000;stroke-width:1.5;"/><line style="stroke:#000000;stroke-width:1.5;" x1="30" x2="73" y1="87.4883" y2="87.4883"/><text fill="#000000" font-family="sans-serif" font-size="14" font-weight="bold" lengthAdjust="spacing" textLength="30" x="34" y="80.5352">core</text><text fill="#000000" font-family="sans-serif" font-size="14" font-style="italic" lengthAdjust="spacing" textLength="66" x="325.5" y="103.0234">&#171;module&#187;</text></g><!--cluster v--><g id="cluster_v"><path d="M64.5,132 L73.5,132 A3.75,3.75 0 0 1 76,134.5 L83,154.4883 L368.5,154.4883 A2.5,2.5 0 0 1 371,156.9883 L371,454.36 A2.5,2.5 0 0 1 368.5,456.86 L64.5,456.86 A2.5,2.5 0 0 1 62,454.36 L62,134.5 A2.5,2.5 0 0 1 64.5,132 " fill="none" style="stroke:#000000;stroke-width:1.5;"/><line style="stroke:#000000;stroke-width:1.5;" x1="62" x2="83" y1="154.4883" y2="154.4883"/><text fill="#000000" font-family="sans-serif" font-size="14" font-weight="bold" lengthAdjust="spacing" textLength="8" x="66" y="147.5352">v</text><text fill="#000000" font-family="sans-serif" font-size="14" font-style="italic" lengthAdjust="spacing" textLength="66" x="187.5" y="170.0234">&#171;module&#187;</text></g><!--class name--><g id="elem_name"><rect codeLine="7" fill="#F1F1F1" height="40.6211" id="name" rx="2.5" ry="2.5" style="stroke:#181818;stroke-width:0.5;" width="57" x="395.5" y="291.62"/><text fill="#000000" font-family="sans-serif" font-size="12" font-style="italic" lengthAdjust="spacing" textLength="55" x="396.5" y="308.2216">&#171;module&#187;</text><text fill="#000000" font-family="sans-serif" font-size="14" lengthAdjust="spacing" textLength="38" x="405" y="324.288">name</text></g><!--class namespace--><g id="elem_namespace"><rect codeLine="8" fill="#F1F1F1" height="40.6211" id="namespace" rx="2.5" ry="2.5" style="stroke:#181818;stroke-width:0.5;" width="83" x="487.5" y="291.62"/><text fill="#000000" font-family="sans-serif" font-size="12" font-style="italic" lengthAdjust="spacing" textLength="55" x="501.5" y="308.2216">&#171;module&#187;</text><text fill="#000000" font-family="sans-serif" font-size="14" lengthAdjust="spacing" textLength="77" x="490.5" y="324.288">namespace</text></g><!--class nsmap--><g id="elem_nsmap"><rect codeLine="9" fill="#F1F1F1" height="40.6211" id="nsmap" rx="2.5" ry="2.5" style="stroke:#181818;stroke-width:0.5;" width="57" x="605.5" y="291.62"/><text fill="#000000" font-family="sans-serif" font-size="12" font-style="italic" lengthAdjust="spacing" textLength="55" x="606.5" y="308.2216">&#171;module&#187;</text><text fill="#000000" font-family="sans-serif" font-size="14" lengthAdjust="spacing" textLength="46" x="611" y="324.288">nsmap</text></g><!--class ex--><g id="elem_ex"><rect codeLine="12" fill="#F1F1F1" height="40.6211" id="ex" rx="2.5" ry="2.5" style="stroke:#181818;stroke-width:0.5;" width="57" x="86.5" y="191"/><text fill="#000000" font-family="sans-serif" font-size="12" font-style="italic" lengthAdjust="spacing" textLength="55" x="87.5" y="207.6016">&#171;module&#187;</text><text fill="#000000" font-family="sans-serif" font-size="14" lengthAdjust="spacing" textLength="17" x="106.5" y="223.668">ex</text></g><!--class rdf--><g id="elem_rdf"><rect codeLine="13" fill="#F1F1F1" height="40.6211" id="rdf" rx="2.5" ry="2.5" style="stroke:#181818;stroke-width:0.5;" width="57" x="178.5" y="191"/><text fill="#000000" font-family="sans-serif" font-size="12" font-style="italic" lengthAdjust="spacing" textLength="55" x="179.5" y="207.6016">&#171;module&#187;</text><text fill="#000000" font-family="sans-serif" font-size="14" lengthAdjust="spacing" textLength="20" x="197" y="223.668">rdf</text></g><!--class rdfs--><g id="elem_rdfs"><rect codeLine="14" fill="#F1F1F1" height="40.6211" id="rdfs" rx="2.5" ry="2.5" style="stroke:#181818;stroke-width:0.5;" width="57" x="270.5" y="191"/><text fill="#000000" font-family="sans-serif" font-size="12" font-style="italic" lengthAdjust="spacing" textLength="55" x="271.5" y="207.6016">&#171;module&#187;</text><text fill="#000000" font-family="sans-serif" font-size="14" lengthAdjust="spacing" textLength="27" x="285.5" y="223.668">rdfs</text></g><!--class sd--><g id="elem_sd"><rect codeLine="15" fill="#F1F1F1" height="40.6211" id="sd" rx="2.5" ry="2.5" style="stroke:#181818;stroke-width:0.5;" width="57" x="86.5" y="291.62"/><text fill="#000000" font-family="sans-serif" font-size="12" font-style="italic" lengthAdjust="spacing" textLength="55" x="87.5" y="308.2216">&#171;module&#187;</text><text fill="#000000" font-family="sans-serif" font-size="14" lengthAdjust="spacing" textLength="16" x="107" y="324.288">sd</text></g><!--class void--><g id="elem_void"><rect codeLine="16" fill="#F1F1F1" height="40.6211" id="void" rx="2.5" ry="2.5" style="stroke:#181818;stroke-width:0.5;" width="57" x="178.5" y="291.62"/><text fill="#000000" font-family="sans-serif" font-size="12" font-style="italic" lengthAdjust="spacing" textLength="55" x="179.5" y="308.2216">&#171;module&#187;</text><text fill="#000000" font-family="sans-serif" font-size="14" lengthAdjust="spacing" textLength="29" x="192.5" y="324.288">void</text></g><!--class xml--><g id="elem_xml"><rect codeLine="17" fill="#F1F1F1" height="40.6211" id="xml" rx="2.5" ry="2.5" style="stroke:#181818;stroke-width:0.5;" width="57" x="270.5" y="291.62"/><text fill="#000000" font-family="sans-serif" font-size="12" font-style="italic" lengthAdjust="spacing" textLength="55" x="271.5" y="308.2216">&#171;module&#187;</text><text fill="#000000" font-family="sans-serif" font-size="14" lengthAdjust="spacing" textLength="26" x="286" y="324.288">xml</text></g><!--class xmlns--><g id="elem_xmlns"><rect codeLine="18" fill="#F1F1F1" height="40.6211" id="xmlns" rx="2.5" ry="2.5" style="stroke:#181818;stroke-width:0.5;" width="57" x="86.5" y="392.24"/><text fill="#000000" font-family="sans-serif" font-size="12" font-style="italic" lengthAdjust="spacing" textLength="55" x="87.5" y="408.8416">&#171;module&#187;</text><text fill="#000000" font-family="sans-serif" font-size="14" lengthAdjust="spacing" textLength="42" x="94" y="424.908">xmlns</text></g><!--class xsd--><g id="elem_xsd"><rect codeLine="19" fill="#F1F1F1" height="40.6211" id="xsd" rx="2.5" ry="2.5" style="stroke:#181818;stroke-width:0.5;" width="57" x="178.5" y="392.24"/><text fill="#000000" font-family="sans-serif" font-size="12" font-style="italic" lengthAdjust="spacing" textLength="55" x="179.5" y="408.8416">&#171;module&#187;</text><text fill="#000000" font-family="sans-serif" font-size="14" lengthAdjust="spacing" textLength="25" x="194.5" y="424.908">xsd</text></g><!--class xsi--><g id="elem_xsi"><rect codeLine="20" fill="#F1F1F1" height="40.6211" id="xsi" rx="2.5" ry="2.5" style="stroke:#181818;stroke-width:0.5;" width="57" x="270.5" y="392.24"/><text fill="#000000" font-family="sans-serif" font-size="12" font-style="italic" lengthAdjust="spacing" textLength="55" x="271.5" y="408.8416">&#171;module&#187;</text><text fill="#000000" font-family="sans-serif" font-size="14" lengthAdjust="spacing" textLength="20" x="289" y="424.908">xsi</text></g><!--link v to name--><g id="link_v_name"><path codeLine="22" d="M371.1213,225.4391 C371.2391,225.6294 371.3578,225.8214 371.4775,226.0148 C372.4349,227.5627 373.4543,229.2109 374.5255,230.9429 C376.668,234.4067 379.0175,238.2056 381.4925,242.2075 C391.3925,258.215 400.1439,272.3672 408.8339,286.4172 " fill="none" id="v-to-name" style="stroke:#181818;stroke-width:1.0;stroke-dasharray:7.0,7.0;"/><polygon fill="#181818" points="411.99,291.52,410.6577,281.7617,409.3599,287.2676,403.8539,285.9698,411.99,291.52" style="stroke:#181818;stroke-width:1.0;"/></g><!--link v to namespace--><g id="link_v_namespace"><path codeLine="23" d="M371.0097,217.0689 C371.114,217.1309 371.2191,217.1933 371.3252,217.2564 C371.7495,217.5085 372.1882,217.7691 372.6408,218.038 C374.4514,219.1138 376.4853,220.3222 378.715,221.6469 C387.6337,226.9456 399.685,234.105 413.105,242.0775 C439.945,258.0225 467.1018,274.1552 490.7818,288.2252 " fill="none" id="v-to-namespace" style="stroke:#181818;stroke-width:1.0;stroke-dasharray:7.0,7.0;"/><polygon fill="#181818" points="495.94,291.29,490.246,283.254,491.6415,288.736,486.1595,290.1315,495.94,291.29" style="stroke:#181818;stroke-width:1.0;"/></g><!--link v to nsmap--><g id="link_v_nsmap"><path codeLine="24" d="M371.0122,214.9438 C371.1445,214.9875 371.2784,215.0317 371.4138,215.0764 C371.9553,215.2553 372.5211,215.4422 373.1105,215.6372 C374.2894,216.027 375.5631,216.4487 376.927,216.901 C379.6548,217.8056 382.7437,218.8326 386.1581,219.9716 C399.8156,224.5275 418.68,230.8763 440.4675,238.36 C484.0425,253.3275 539.31,272.835 588,291.62 C593.66,293.8 594.121,293.9237 599.861,296.3137 " fill="none" id="v-to-nsmap" style="stroke:#181818;stroke-width:1.0;stroke-dasharray:7.0,7.0;"/><polygon fill="#181818" points="605.4,298.62,598.629,291.4678,600.7841,296.6981,595.5539,298.8532,605.4,298.62" style="stroke:#181818;stroke-width:1.0;"/></g><!--SRC=[ZP5X2eCm38N_vnGvWISGxzArsInhh3IRT0plFgiucRFK_0fv7uyNNciD8N7_U24JNoW8jEcaRT2E1A1N-gvkXC5SiQxPcwUZfi4tu3Ihg7sWVpMDTae4EyM_-dW0oEHMe8HLdo6-ovffE0wqkL7CM6t8_kaC8qL8J14Pl2r3aTqPfYidYYSYHR4PPji6hAfcxk_WD5UwlwSIOJ4PuGC0]--></g></svg>