<?xml version="1.0" encoding="us-ascii" standalone="no"?><svg xmlns="http://www.w3.org/2000/svg" xmlns:xlink="http://www.w3.org/1999/xlink" contentStyleType="text/css" height="336px" preserveAspectRatio="none" style="width:676px;height:336px;background:#FFFFFF;" version="1.1" viewBox="0 0 676 336" width="676px" zoomAndPan="magnify"><defs/><g><!--cluster rdf--><g id="cluster_rdf"><path d="M8.5,6 L30.5,6 A3.75,3.75 0 0 1 33,8.5 L40,28.4883 L666.5,28.4883 A2.5,2.5 0 0 1 669,30.9883 L669,326.74 A2.5,2.5 0 0 1 666.5,329.24 L8.5,329.24 A2.5,2.5 0 0 1 6,326.74 L6,8.5 A2.5,2.5 0 0 1 8.5,6 " fill="none" style="stroke:#000000;stroke-width:1.5;"/><line style="stroke:#000000;stroke-width:1.5;" x1="6" x2="40" y1="28.4883" y2="28.4883"/><text fill="#000000" font-family="sans-serif" font-size="14" font-weight="bold" lengthAdjust="spacing" textLength="21" x="10" y="21.5352">rdf</text><text fill="#000000" font-family="sans-serif" font-size="14" font-style="italic" lengthAdjust="spacing" textLength="66" x="308.5" y="44.0234">&#171;module&#187;</text></g><!--cluster dc--><g id="cluster_dc"><path d="M40.5,73 L57.5,73 A3.75,3.75 0 0 1 60,75.5 L67,95.4883 L262.5,95.4883 A2.5,2.5 0 0 1 265,97.9883 L265,294.74 A2.5,2.5 0 0 1 262.5,297.24 L40.5,297.24 A2.5,2.5 0 0 1 38,294.74 L38,75.5 A2.5,2.5 0 0 1 40.5,73 " fill="none" style="stroke:#000000;stroke-width:1.5;"/><line style="stroke:#000000;stroke-width:1.5;" x1="38" x2="67" y1="95.4883" y2="95.4883"/><text fill="#000000" font-family="sans-serif" font-size="14" font-weight="bold" lengthAdjust="spacing" textLength="16" x="42" y="88.5352">dc</text><text fill="#000000" font-family="sans-serif" font-size="14" font-style="italic" lengthAdjust="spacing" textLength="66" x="122.5" y="111.0234">&#171;module&#187;</text></g><!--class name--><g id="elem_name"><rect codeLine="6" fill="#F1F1F1" height="40.6211" id="name" rx="2.5" ry="2.5" style="stroke:#181818;stroke-width:0.5;" width="82" x="289" y="232.62"/><text fill="#000000" font-family="sans-serif" font-size="12" font-style="italic" lengthAdjust="spacing" textLength="55" x="302.5" y="249.2216">&#171;module&#187;</text><text fill="#000000" font-family="sans-serif" font-size="14" lengthAdjust="spacing" textLength="76" x="292" y="265.288">core::name</text></g><!--class namespace--><g id="elem_namespace"><rect codeLine="7" fill="#F1F1F1" height="40.6211" id="namespace" rx="2.5" ry="2.5" style="stroke:#181818;stroke-width:0.5;" width="121" x="406.5" y="232.62"/><text fill="#000000" font-family="sans-serif" font-size="12" font-style="italic" lengthAdjust="spacing" textLength="55" x="439.5" y="249.2216">&#171;module&#187;</text><text fill="#000000" font-family="sans-serif" font-size="14" lengthAdjust="spacing" textLength="115" x="409.5" y="265.288">core::namespace</text></g><!--class nsmap--><g id="elem_nsmap"><rect codeLine="8" fill="#F1F1F1" height="40.6211" id="nsmap" rx="2.5" ry="2.5" style="stroke:#181818;stroke-width:0.5;" width="90" x="563" y="232.62"/><text fill="#000000" font-family="sans-serif" font-size="12" font-style="italic" lengthAdjust="spacing" textLength="55" x="580.5" y="249.2216">&#171;module&#187;</text><text fill="#000000" font-family="sans-serif" font-size="14" lengthAdjust="spacing" textLength="84" x="566" y="265.288">core::nsmap</text></g><!--class terms--><g id="elem_terms"><rect codeLine="11" fill="#F1F1F1" height="40.6211" id="terms" rx="2.5" ry="2.5" style="stroke:#181818;stroke-width:0.5;" width="57" x="62.5" y="132"/><text fill="#000000" font-family="sans-serif" font-size="12" font-style="italic" lengthAdjust="spacing" textLength="55" x="63.5" y="148.6016">&#171;module&#187;</text><text fill="#000000" font-family="sans-serif" font-size="14" lengthAdjust="spacing" textLength="39" x="71.5" y="164.668">terms</text></g><!--class elements--><g id="elem_elements"><rect codeLine="12" fill="#F1F1F1" height="40.6211" id="elements" rx="2.5" ry="2.5" style="stroke:#181818;stroke-width:0.5;" width="68" x="154" y="132"/><text fill="#000000" font-family="sans-serif" font-size="12" font-style="italic" lengthAdjust="spacing" textLength="55" x="160.5" y="148.6016">&#171;module&#187;</text><text fill="#000000" font-family="sans-serif" font-size="14" lengthAdjust="spacing" textLength="62" x="157" y="164.668">elements</text></g><!--class type--><g id="elem_type"><rect codeLine="13" fill="#F1F1F1" height="40.6211" id="type" rx="2.5" ry="2.5" style="stroke:#181818;stroke-width:0.5;" width="57" x="62.5" y="232.62"/><text fill="#000000" font-family="sans-serif" font-size="12" font-style="italic" lengthAdjust="spacing" textLength="55" x="63.5" y="249.2216">&#171;module&#187;</text><text fill="#000000" font-family="sans-serif" font-size="14" lengthAdjust="spacing" textLength="29" x="76.5" y="265.288">type</text></g><!--class cam--><g id="elem_cam"><rect codeLine="14" fill="#F1F1F1" height="40.6211" id="cam" rx="2.5" ry="2.5" style="stroke:#181818;stroke-width:0.5;" width="57" x="154.5" y="232.62"/><text fill="#000000" font-family="sans-serif" font-size="12" font-style="italic" lengthAdjust="spacing" textLength="55" x="155.5" y="249.2216">&#171;module&#187;</text><text fill="#000000" font-family="sans-serif" font-size="14" lengthAdjust="spacing" textLength="28" x="169" y="265.288">cam</text></g><!--link dc to name--><g id="link_dc_name"><path codeLine="16" d="M265.0845,164.234 C265.2156,164.4111 265.3479,164.5898 265.4814,164.7702 C266.0157,165.492 266.57,166.2409 267.1429,167.0148 C268.2887,168.5627 269.5087,170.2109 270.7906,171.9429 C273.3546,175.4067 276.1666,179.2056 279.1288,183.2075 C290.9775,199.215 301.6603,213.6474 312.0603,227.6974 " fill="none" id="dc-to-name" style="stroke:#181818;stroke-width:1.0;stroke-dasharray:7.0,7.0;"/><polygon fill="#181818" points="315.63,232.52,313.4905,222.9063,312.6552,228.5012,307.0604,227.666,315.63,232.52" style="stroke:#181818;stroke-width:1.0;"/></g><!--link dc to namespace--><g id="link_dc_namespace"><path codeLine="17" d="M265.2413,157.1805 C265.4818,157.2934 265.727,157.4086 265.977,157.526 C266.9766,157.9955 268.0513,158.5002 269.1966,159.038 C271.4872,160.1138 274.0602,161.3222 276.8809,162.6469 C288.1638,167.9456 303.4088,175.105 320.385,183.0775 C354.3375,199.0225 389.7842,215.6691 419.7392,229.7391 " fill="none" id="dc-to-namespace" style="stroke:#181818;stroke-width:1.0;stroke-dasharray:7.0,7.0;"/><polygon fill="#181818" points="425.17,232.29,418.7244,224.8432,420.6444,230.1643,415.3233,232.0842,425.17,232.29" style="stroke:#181818;stroke-width:1.0;"/></g><!--link dc to nsmap--><g id="link_dc_nsmap"><path codeLine="18" d="M265.2821,155.4968 C265.435,155.5373 265.5899,155.5783 265.7468,155.6199 C270.7665,156.9491 277.8102,158.8182 286.5172,161.1389 C303.9313,165.7803 327.9988,172.2281 355.835,179.7763 C411.5075,194.8725 482.255,214.37 545,232.62 C550.71,234.28 550.9568,234.3235 556.8768,236.1135 " fill="none" id="dc-to-nsmap" style="stroke:#181818;stroke-width:1.0;stroke-dasharray:7.0,7.0;"/><polygon fill="#181818" points="562.62,237.85,555.1629,231.4164,557.834,236.4029,552.8475,239.074,562.62,237.85" style="stroke:#181818;stroke-width:1.0;"/></g><!--SRC=[XP1H3eCW38RVEKNZ0Jo0CTwbAzqqeqeeUp2BTvzW5gCZZWVIbkzl_z8Fbe75nnc4vSP1JPzAD0HohCPuf2S-68AzGzlAP5-EkmxU1jP33bMXeYbmqumeN04gfE30BcLOrzwx8cT_PIheDqcAJdZcluOj_VhT-qKEeeLfEy6EXSTu3SNPyoL0A8NtxLuTrdMNbp_d-JCEnRIkMSm7]--></g></svg>